<svg width="16" height="16" viewBox="0 0 16 16" fill="none" xmlns="http://www.w3.org/2000/svg">
<title>Логотип Телеграм</title>
<rect width="16" height="16" fill="#3C3C3C"/>
<path d="M14.3077 4.48412C14.3686 4.17388 14.2343 4 13.9166 4H12.3163C11.9498 4 11.8154 4.16133 11.7055 4.39718C11.7055 4.39718 10.8573 6.36184 9.80445 7.54222C9.46651 7.92384 9.40719 8.03863 9.22063 8.03863C9.07011 8.03863 9.00072 7.91117 9.00072 7.56693V4.55083C9.00072 4.12881 8.95246 4 8.60981 4H6.06247C5.86595 4 5.73469 4.10877 5.73469 4.26633C5.73469 4.66376 6.33328 4.75346 6.33328 5.83034V8.05208C6.33328 8.49894 6.30884 8.67269 6.10116 8.67269C5.55146 8.67269 4.12387 6.76028 3.39094 4.57566C3.24426 4.12881 3.08619 4 2.66948 4H1.07325C0.841127 4 0.666656 4.16594 0.666656 4.40179C0.666656 4.83623 1.16746 6.84709 3.13437 9.54053C4.45367 11.3527 6.30088 12.3333 7.86453 12.3333C8.81749 12.3333 9.00072 12.1652 9.00072 11.7555V10.3654C9.00072 10.0179 9.13506 9.86885 9.33052 9.86885C9.55042 9.86885 9.87495 9.9475 10.7819 10.8563C11.8568 11.8989 11.9301 12.3333 12.5166 12.3333H14.3123C14.4956 12.3333 14.6667 12.2464 14.6667 11.9362C14.6667 11.5264 14.1413 10.7942 13.335 9.92529C13.0052 9.47843 12.4676 8.99444 12.2966 8.77101C12.0523 8.51032 12.1256 8.36129 12.2966 8.08831C12.2966 8.08831 14.1243 5.35299 14.3077 4.48412Z" fill="white"/>
</svg>
