<svg width="20" height="20" viewBox="0 0 20 20" fill="none" xmlns="http://www.w3.org/2000/svg">
<path d="M4.49437 4.49437C4.77331 4.21542 5.22557 4.21542 5.50452 4.49437L9.99944 8.98873L14.4944 4.49437C14.7519 4.23688 15.157 4.21707 15.4372 4.43495L15.5045 4.49437C15.7835 4.77331 15.7835 5.22557 15.5045 5.50452L11.0102 9.99944L15.5045 14.4944C15.762 14.7519 15.7818 15.157 15.5639 15.4372L15.5045 15.5045C15.2256 15.7835 14.7733 15.7835 14.4944 15.5045L9.99944 11.0102L5.50452 15.5045C5.24703 15.762 4.84186 15.7818 4.56166 15.5639L4.49437 15.5045C4.21542 15.2256 4.21542 14.7733 4.49437 14.4944L8.98873 9.99944L4.49437 5.50452C4.23688 5.24703 4.21707 4.84186 4.43495 4.56166L4.49437 4.49437Z" fill="white"/>
</svg>
