<svg width="83" height="28" viewBox="0 0 83 28" fill="none" xmlns="http://www.w3.org/2000/svg">
<title>Скачивайте приложение в AppStore</title>
<g clip-path="url(#clip0_3_671)">
<path fill-rule="evenodd" clip-rule="evenodd" d="M77.8802 0H5.06995C0.723694 0 0 1.51529 0 5.11906V22.9131C0 26.5176 1.48828 28 5.06423 28H77.881C81.4594 28 83 26.5119 83 22.9081V5.11988C83 1.51529 81.4586 0 77.8802 0Z" fill="#3C3C3C"/>
<path fill-rule="evenodd" clip-rule="evenodd" d="M21.6401 17.4295C21.2222 18.3651 21.0219 18.7768 20.4838 19.6004C19.7323 20.7533 18.6742 22.1854 17.3625 22.1978C16.1973 22.2085 15.898 21.4335 14.3165 21.4426C12.735 21.4517 12.4046 22.211 11.2385 22.2011C9.93016 22.1887 8.92435 20.8941 8.17285 19.7428C6.07291 16.5228 5.85294 12.7428 7.14823 10.7359C8.069 9.30872 9.51965 8.47284 10.8861 8.47284C12.2762 8.47284 13.1504 9.24037 14.2993 9.24037C15.4139 9.24037 16.0934 8.47119 17.7011 8.47119C18.9162 8.47119 20.2033 9.13743 21.12 10.2895C18.1149 11.9481 18.603 16.2708 21.6393 17.4263" fill="white"/>
<path fill-rule="evenodd" clip-rule="evenodd" d="M16.481 7.18886C17.0649 6.4345 17.5081 5.36803 17.3478 4.2785C16.3944 4.34439 15.2782 4.95544 14.6264 5.75262C14.0352 6.47568 13.547 7.54874 13.7375 8.59133C14.7785 8.62345 15.8563 7.99756 16.4819 7.19133" fill="white"/>
<path fill-rule="evenodd" clip-rule="evenodd" d="M75.5891 18.9408H71.3672C71.3835 19.5173 71.588 20.0229 71.9805 20.3548C72.3354 20.6529 72.7982 20.7888 73.3608 20.7888C73.9444 20.7951 74.5239 20.6894 75.0683 20.4775L75.2899 21.46C74.6929 21.7243 73.9815 21.8512 73.1637 21.8512C72.1825 21.8512 71.4122 21.5607 70.8528 20.9799C70.2935 20.399 70.0127 19.6183 70.0106 18.6377C70.0106 17.6734 70.2722 16.8746 70.7923 16.233C71.3424 15.5517 72.0811 15.211 73.0084 15.211C73.9231 15.211 74.6139 15.5517 75.0805 16.233C75.4526 16.7774 75.6407 17.4741 75.6407 18.2705C75.6436 18.495 75.6263 18.7194 75.5891 18.9408ZM69.5894 16.6012C69.4398 16.5734 69.2877 16.5612 69.1356 16.5649C68.6409 16.5649 68.2541 16.7527 67.9842 17.1282C67.7487 17.4576 67.6269 17.8752 67.6269 18.3866V21.6585H66.2367V17.3605C66.2367 16.63 66.2065 15.9761 66.1819 15.3173H67.4085L67.4609 16.6349H67.4993C67.632 16.2292 67.8758 15.8695 68.2026 15.5973C68.4989 15.3711 68.8595 15.2467 69.2313 15.2423C69.3513 15.2361 69.4715 15.2391 69.5911 15.2514L69.5894 16.6012ZM64.5015 20.9082C63.9176 21.5539 63.1446 21.877 62.1824 21.8775C61.2513 21.8775 60.5096 21.567 59.9573 20.9461C59.4062 20.3268 59.1322 19.5403 59.1322 18.5974C59.1322 17.6092 59.4165 16.8002 59.9851 16.1705C60.5576 15.538 61.3197 15.2275 62.2838 15.2275C63.2168 15.2275 63.9634 15.5347 64.5277 16.1589C65.0641 16.7585 65.3372 17.5408 65.3372 18.492C65.3372 19.4745 65.0576 20.2766 64.5015 20.9082ZM58.7136 16.4702H57.2416V19.5173C57.2416 20.3037 57.487 20.6941 58.0316 20.6941C58.2362 20.6996 58.4406 20.6788 58.64 20.6323L58.6719 21.7029C58.3177 21.8196 57.9461 21.8731 57.5736 21.861C57.0209 21.861 56.5678 21.6963 56.2563 21.3488C55.9447 21.0013 55.7697 20.438 55.7697 19.6334V16.4702H54.8702V15.3173H55.7697V14.1874L57.2416 13.7674V15.3173H58.7136V16.4702ZM53.7671 21.0886C53.1925 21.6052 52.3949 21.8632 51.3744 21.8627C50.4275 21.8627 49.6689 21.6793 49.0986 21.3126L49.4257 20.1316C50.04 20.4977 50.7417 20.6882 51.4554 20.6826C51.9877 20.6826 52.399 20.5607 52.695 20.3219C52.8389 20.2066 52.9539 20.0589 53.0306 19.8907C53.1073 19.7224 53.1436 19.5384 53.1366 19.3534C53.1403 19.1854 53.11 19.0184 53.0474 18.8627C52.9848 18.7069 52.8914 18.5656 52.7727 18.4475C52.5274 18.2005 52.1267 17.9773 51.5617 17.7656C50.0254 17.1925 49.2567 16.3489 49.2557 15.2349C49.2468 14.8947 49.3154 14.5569 49.4561 14.2474C49.5968 13.9379 49.806 13.665 50.0677 13.4495C50.6128 12.9872 51.3319 12.7556 52.2248 12.7545C53.0235 12.7545 53.6883 12.8942 54.2193 13.1736L53.8644 14.3266C53.3457 14.0498 52.766 13.9095 52.1791 13.9189C51.6827 13.9189 51.2943 14.0457 51.0138 14.2854C50.9019 14.3862 50.8126 14.5099 50.752 14.6482C50.6913 14.7865 50.6607 14.9363 50.6622 15.0875C50.6596 15.2535 50.6946 15.4179 50.7645 15.5683C50.8343 15.7186 50.9372 15.8511 51.0653 15.9555C51.3008 16.1647 51.726 16.3912 52.341 16.6349C53.099 16.9388 53.6493 17.2995 54.0108 17.7121C54.3722 18.1247 54.5431 18.6402 54.5431 19.2513C54.5431 20.0048 54.2847 20.6192 53.7671 21.0886ZM45.6364 21.0392C45.3876 21.3103 45.0846 21.5251 44.7472 21.6695C44.4099 21.8139 44.046 21.8845 43.6795 21.8767C42.8413 21.8767 42.2771 21.5753 41.8682 20.9708V24.3761H40.4781V17.4502C40.4781 16.7683 40.4519 16.1408 40.4184 15.3173H41.6532L41.735 16.3879H41.7595C42.2321 15.6467 42.9419 15.2349 43.897 15.2349C44.2553 15.2284 44.6102 15.3049 44.9344 15.4584C45.2587 15.6119 45.5436 15.8383 45.7672 16.1202C46.2682 16.7137 46.5182 17.4958 46.5171 18.4665C46.5162 19.5568 46.2235 20.4083 45.6364 21.0392ZM38.6791 21.0392C38.4311 21.3102 38.1288 21.525 37.7921 21.6694C37.4555 21.8138 37.0922 21.8844 36.7263 21.8767C35.8857 21.8767 35.3264 21.5753 34.9175 20.9708V24.3761H33.5274V17.4502C33.5274 16.7683 33.4955 16.1408 33.4595 15.3173H34.6975L34.7793 16.3879H34.8038C35.2757 15.6467 35.9863 15.2349 36.943 15.2349C37.6896 15.2349 38.3119 15.524 38.814 16.1202C39.3161 16.7165 39.5622 17.4955 39.5622 18.4665C39.559 19.5568 39.2662 20.4083 38.6791 21.0392ZM31.1559 21.6585L30.3382 19.1055H27.4761L26.6935 21.6585H25.2388L28.0641 12.8467H29.8124L32.654 21.6585H31.1559ZM72.907 16.1935C72.4474 16.1935 72.0745 16.4307 71.7867 16.8128C71.5355 17.141 71.39 17.5387 71.3696 17.9526H74.3012C74.3086 17.4585 74.2194 17.129 74.0289 16.8252C73.9145 16.6284 73.7499 16.466 73.5522 16.355C73.3545 16.2439 73.1309 16.1881 72.9045 16.1935H72.907ZM28.899 14.082H28.8744C28.7861 14.4937 28.6488 15.0422 28.4558 15.7776L27.7263 18.1173H30.0839L29.3479 15.7776C29.2645 15.5405 29.1116 14.9055 28.899 14.082ZM43.4407 16.3516C43.0953 16.3508 42.7608 16.4737 42.4971 16.6983C42.2136 16.9313 42.0163 17.2536 41.9369 17.6133C41.8975 17.7548 41.8745 17.9004 41.8682 18.0473V19.1055C41.8572 19.5383 42.0101 19.959 42.2959 20.2823C42.4337 20.4381 42.6038 20.5615 42.7941 20.6439C42.9844 20.7263 43.1904 20.7656 43.3974 20.7592C43.9298 20.7592 44.3435 20.5549 44.6387 20.1423C44.9339 19.7297 45.0836 19.1887 45.0836 18.5134C45.0836 17.8941 44.9437 17.3819 44.6665 16.98C44.5296 16.7814 44.346 16.6201 44.1321 16.5105C43.9182 16.4009 43.6807 16.3463 43.4407 16.3516ZM62.2298 16.2627C61.6664 16.2627 61.2363 16.5147 60.9427 17.0212C60.6884 17.4379 60.5633 17.9476 60.5633 18.5496C60.5633 19.1368 60.6884 19.6367 60.9427 20.055C61.2436 20.5607 61.6691 20.8132 62.2192 20.8127C62.754 20.8127 63.1776 20.5574 63.4801 20.0394C63.7426 19.6161 63.8735 19.108 63.8735 18.5257C63.8735 17.9435 63.7475 17.4387 63.4973 17.022C63.1997 16.5147 62.7793 16.2627 62.2298 16.2627ZM36.4794 16.3508C36.134 16.3501 35.7995 16.473 35.5357 16.6975C35.2535 16.9307 35.0578 17.2531 34.9805 17.6125C34.9421 17.7541 34.9202 17.8997 34.915 18.0465V19.1055C34.9023 19.5378 35.0538 19.9587 35.3386 20.2823C35.4762 20.4382 35.6461 20.5617 35.8363 20.6441C36.0265 20.7265 36.2324 20.7657 36.4393 20.7592C36.9684 20.7592 37.3838 20.5549 37.679 20.1423C37.9742 19.7297 38.1206 19.1887 38.1206 18.5134C38.1206 17.8941 37.9832 17.3819 37.7052 16.98C37.5686 16.7815 37.3853 16.6202 37.1717 16.5105C36.958 16.4008 36.7207 16.3463 36.481 16.3516L36.4794 16.3508Z" fill="white"/>
<path d="M29.2616 10.5278C29.0752 10.625 28.6647 10.7213 28.1446 10.7213C26.7708 10.7213 25.9367 9.85497 25.9367 8.52992C25.9367 7.09533 26.9253 6.22897 28.2476 6.22897C28.7677 6.22897 29.1398 6.3385 29.3 6.4225L29.1267 7.0558C28.8586 6.9425 28.5702 6.88642 28.2795 6.89109C27.4004 6.89109 26.7651 7.44697 26.7651 8.4945C26.7651 9.45145 27.3236 10.065 28.2738 10.065C28.5686 10.0685 28.8611 10.0125 29.134 9.90027L29.2616 10.5278Z" fill="white"/>
<path d="M30.6932 7.51001V8.81201H30.8085L31.771 7.50671H32.7089L31.4635 8.89436C31.8937 8.95942 32.157 9.30119 32.3688 9.80601C32.4653 10.0391 32.5806 10.3874 32.722 10.6592H31.9043C31.7908 10.4431 31.6943 10.2184 31.6156 9.98719C31.4521 9.5606 31.2117 9.35389 30.7979 9.35389H30.6949V10.66H29.9041V7.51001H30.6932Z" fill="white"/>
<path d="M34.9813 10.6573L34.9298 10.3082H34.9102C34.7977 10.444 34.6561 10.5523 34.4961 10.6251C34.336 10.6978 34.1617 10.7331 33.9861 10.7282C33.3573 10.7282 33.0049 10.2695 33.0049 9.79099C33.0049 8.99628 33.7048 8.59522 34.8595 8.60181V8.54993C34.8595 8.34322 34.7777 8.00064 34.2241 8.00064C33.9278 8.00165 33.6372 8.0827 33.3826 8.23534L33.2289 7.71817C33.5746 7.52737 33.9641 7.43138 34.3582 7.43981C35.3591 7.43981 35.6486 8.0797 35.6486 8.76487V9.90217C35.6448 10.1549 35.6598 10.4077 35.6936 10.6582L34.9813 10.6573ZM34.8783 9.11899C34.3198 9.10581 33.7874 9.22852 33.7874 9.70699C33.7874 10.0175 33.9861 10.1591 34.2364 10.1591C34.3714 10.1617 34.5038 10.1212 34.6145 10.0434C34.7253 9.96559 34.8087 9.85445 34.8529 9.72593C34.8703 9.66941 34.8788 9.61051 34.8783 9.55134V9.11899Z" fill="white"/>
<path d="M37.1448 7.51016V8.4984C37.1448 8.8731 37.2797 9.09299 37.6902 9.09299C37.8811 9.09052 38.0668 9.02963 38.2225 8.9184V7.51016H39.0117V10.6585H38.2225V9.44875H38.2095C37.9605 9.59161 37.6783 9.66523 37.3917 9.66205C36.7563 9.66205 36.3516 9.31287 36.3516 8.5824V7.51181L37.1448 7.51016Z" fill="white"/>
<path d="M40.5981 7.51016V8.64169C40.5981 9.13581 40.5785 9.47593 40.5532 9.91487H40.5728C40.7363 9.54675 40.8361 9.31369 40.9964 8.98428L41.7667 7.51016H42.7234V10.6585H41.9728V9.53275C41.9728 9.02875 41.9924 8.79569 42.0243 8.2011H41.9989C41.8452 8.57581 41.7422 8.80228 41.5901 9.10699C41.3447 9.57228 41.0634 10.1413 40.7944 10.6585H39.8475V7.51016H40.5981Z" fill="white"/>
<path d="M43.5578 7.5485C43.9342 7.49624 44.3137 7.47037 44.6936 7.47108C45.2202 7.47108 46.1696 7.54191 46.1696 8.26579C46.1696 8.66685 45.8613 8.8925 45.5277 8.96414V8.9765C45.9897 9.04732 46.3111 9.30591 46.3111 9.74567C46.3111 10.612 45.1818 10.696 44.5522 10.696C44.1605 10.696 43.7434 10.6705 43.557 10.6507L43.5578 7.5485ZM44.3216 10.1788C44.4495 10.1927 44.5781 10.1993 44.7067 10.1986C45.0665 10.1986 45.5024 10.1014 45.5024 9.73332C45.5024 9.37755 45.1556 9.26144 44.6617 9.26144H44.3216V10.1788ZM44.3281 8.77885H44.6552C45.0592 8.77885 45.3912 8.66273 45.3912 8.36708C45.3912 8.11508 45.1728 7.9792 44.7043 7.9792C44.5777 7.98016 44.4512 7.98869 44.3256 8.00473L44.3281 8.77885Z" fill="white"/>
<path d="M48.7316 10.6571L48.6801 10.3079H48.6605C48.548 10.4437 48.4065 10.5521 48.2464 10.6248C48.0863 10.6976 47.912 10.7328 47.7365 10.7279C47.1076 10.7279 46.7552 10.2692 46.7552 9.79071C46.7552 8.99601 47.4552 8.59495 48.6098 8.60154V8.54965C48.6098 8.34295 48.528 8.00036 47.9744 8.00036C47.6781 8.00138 47.3876 8.08243 47.133 8.23507L46.9792 7.71624C47.325 7.52544 47.7144 7.42946 48.1085 7.43789C49.1094 7.43789 49.3989 8.07777 49.3989 8.76295V9.90024C49.3951 10.153 49.4101 10.4057 49.4439 10.6562L48.7316 10.6571ZM48.6286 9.11871C48.0701 9.10554 47.5378 9.22824 47.5378 9.70671C47.5378 10.0172 47.7365 10.1588 47.9867 10.1588C48.1217 10.1614 48.2541 10.1209 48.3649 10.0431C48.4756 9.96531 48.5591 9.85418 48.6033 9.72565C48.6206 9.66913 48.6292 9.61023 48.6286 9.55107V9.11871Z" fill="white"/>
<path d="M50.9776 7.50989V8.64142C50.9776 9.13554 50.958 9.47566 50.9326 9.9146H50.9523C51.1158 9.54648 51.2156 9.31342 51.3758 8.98401L52.1461 7.50989H53.1029V10.6582H52.3514V9.53248C52.3514 9.02848 52.371 8.79542 52.4029 8.20084H52.3776C52.2238 8.57554 52.1208 8.80201 51.9687 9.10672C51.7234 9.57201 51.4421 10.1411 51.173 10.6582H50.2269V7.50989H50.9776ZM51.3047 6.22354C51.3178 6.50189 51.4331 6.69542 51.6514 6.69542C51.8828 6.69542 51.9981 6.50189 52.0235 6.22354H52.5436C52.5117 6.78519 52.165 7.08248 51.6392 7.08248C51.0618 7.08248 50.8051 6.72672 50.7789 6.22272L51.3047 6.22354Z" fill="white"/>
<path d="M56.2347 7.51016V8.12452H55.2976V10.6585H54.5085V8.12369H53.5706V7.51016H56.2347Z" fill="white"/>
<path d="M57.1784 9.30597C57.1981 9.87503 57.6404 10.1204 58.1409 10.1204C58.4362 10.1283 58.7302 10.0799 59.0077 9.97797L59.123 10.5273C58.7748 10.6607 58.4046 10.7264 58.0321 10.7208C57.0181 10.7208 56.4212 10.0941 56.4212 9.13056C56.4212 8.25761 56.9478 7.43738 57.9487 7.43738C58.9627 7.43738 59.2964 8.27738 59.2964 8.96914C59.2975 9.08167 59.289 9.19409 59.271 9.30514L57.1784 9.30597ZM58.5522 8.75009C58.5588 8.45938 58.4304 7.98091 57.9038 7.98091C57.4131 7.98091 57.2103 8.42726 57.1784 8.75009H58.5522Z" fill="white"/>
<path d="M61.2543 7.54834C61.6318 7.49565 62.0124 7.46951 62.3934 7.4701C62.92 7.4701 63.8694 7.54093 63.8694 8.26481C63.8694 8.66587 63.5611 8.89151 63.2275 8.96316V8.97634C63.6895 9.04716 64.0109 9.30575 64.0109 9.74552C64.0109 10.6119 62.8816 10.6959 62.252 10.6959C61.8603 10.6959 61.4432 10.6703 61.2568 10.6506L61.2543 7.54834ZM62.0181 10.1795C62.146 10.1934 62.2746 10.2 62.4032 10.1993C62.763 10.1993 63.1989 10.1021 63.1989 9.73399C63.1989 9.37822 62.8522 9.2621 62.3583 9.2621H62.0181V10.1795ZM62.0246 8.77952H62.3517C62.7557 8.77952 63.0877 8.6634 63.0877 8.36775C63.0877 8.11575 62.8693 7.97987 62.4008 7.97987C62.2742 7.98083 62.1478 7.98936 62.0222 8.0054L62.0246 8.77952Z" fill="white"/>
</g>
<defs>
<clipPath id="clip0_3_671">
<rect width="83" height="28" fill="white"/>
</clipPath>
</defs>
</svg>
