<svg width="83" height="28" viewBox="0 0 83 28" fill="none" xmlns="http://www.w3.org/2000/svg">
<title>Скачивайте приложение в GooglePlay</title>
<g clip-path="url(#clip0_3_689)">
<path fill-rule="evenodd" clip-rule="evenodd" d="M77.8802 0H5.06995C0.723694 0 0 1.51529 0 5.11906V22.9131C0 26.5176 1.48828 28 5.06423 28H77.881C81.4594 28 83 26.5119 83 22.9081V5.11988C83 1.51529 81.4586 0 77.8802 0Z" fill="#3C3C3C"/>
<path d="M41.0299 16.0502C39.5072 16.0502 38.3019 17.2031 38.3019 18.7975C38.2992 19.159 38.3679 19.5175 38.504 19.8521C38.6401 20.1866 38.841 20.4906 39.0948 20.7462C39.3487 21.0019 39.6505 21.2042 39.9827 21.3412C40.3149 21.4783 40.6709 21.5475 41.0299 21.5448C42.5525 21.5448 43.7578 20.3918 43.7578 18.7975C43.7578 17.1364 42.5525 16.0502 41.0299 16.0502ZM41.0299 20.3943C40.2056 20.3943 39.5072 19.6918 39.5072 18.7333C39.5072 17.7747 40.2048 17.0722 41.0299 17.0722C41.855 17.0722 42.5525 17.7113 42.5525 18.7333C42.5525 19.6918 41.855 20.3943 41.0299 20.3943ZM35.1307 16.0502C33.6081 16.0502 32.4028 17.2031 32.4028 18.7975C32.4 19.159 32.4687 19.5175 32.6049 19.8521C32.741 20.1866 32.9418 20.4906 33.1957 20.7462C33.4496 21.0019 33.7514 21.2042 34.0836 21.3412C34.4158 21.4783 34.7717 21.5475 35.1307 21.5448C36.6533 21.5448 37.8587 20.3918 37.8587 18.7975C37.8603 17.1364 36.6533 16.0502 35.1307 16.0502ZM35.1307 20.3943C34.3064 20.3943 33.6081 19.6918 33.6081 18.7333C33.6081 17.7747 34.3056 17.0722 35.1307 17.0722C35.9558 17.0722 36.6533 17.7113 36.6533 18.7333C36.6533 19.6918 35.955 20.3943 35.1307 20.3943ZM28.0892 16.882V18.0349H30.8172C30.7534 18.674 30.4999 19.1878 30.1826 19.5041C29.8024 19.887 29.1678 20.3342 28.0892 20.3342C26.3769 20.3342 25.1078 18.9927 25.1078 17.2682C25.1078 15.5437 26.4398 14.2022 28.0892 14.2022C28.9773 14.2022 29.6748 14.5851 30.1826 15.0323L31.0069 14.2022C30.3094 13.5631 29.4213 13.0493 28.1522 13.0493C25.8682 13.0493 23.9 14.9656 23.9 17.2657C23.9 19.5658 25.8625 21.4822 28.1522 21.4822C29.4205 21.4822 30.3085 21.0993 31.0699 20.2683C31.8312 19.5016 32.0847 18.4154 32.0847 17.5853C32.0847 17.33 32.0847 17.0738 32.0209 16.8828H28.0892V16.882ZM56.8882 17.7763C56.6347 17.1373 56.0001 16.0518 54.6042 16.0518C53.2084 16.0518 52.0693 17.1381 52.0693 18.7991C52.0693 20.3326 53.2141 21.5464 54.7334 21.5464C55.9388 21.5464 56.696 20.7797 56.9536 20.3326L56.0655 19.6935C55.7483 20.1407 55.368 20.4602 54.7334 20.4602C54.0989 20.4602 53.7186 20.2049 53.4014 19.6301L57.0174 18.0967L56.8906 17.7771L56.8882 17.7763ZM53.2084 18.6707C53.2084 17.6487 54.0326 17.0738 54.6042 17.0738C55.0483 17.0738 55.4923 17.3291 55.619 17.6503L53.2092 18.6698L53.2084 18.6707ZM50.2269 21.2895H51.4347V13.3013H50.2277L50.2269 21.2895ZM48.3273 16.625C47.9438 16.2265 47.4194 15.9968 46.8685 15.986C45.5364 15.986 44.2681 17.1998 44.2681 18.7333C44.2631 19.0816 44.3265 19.4275 44.4546 19.7511C44.5828 20.0747 44.7731 20.3696 45.0147 20.6189C45.2564 20.8682 45.5445 21.067 45.8626 21.2038C46.1807 21.3407 46.5226 21.4129 46.8685 21.4163C47.1333 21.4184 47.3954 21.3623 47.6365 21.252C47.8775 21.1416 48.0918 20.9796 48.2643 20.7773H48.3273V21.1643C48.3273 22.1863 47.7549 22.7611 46.8685 22.7611C46.1709 22.7611 45.6631 22.2497 45.5364 21.8026L44.5216 22.2497C44.8389 22.9522 45.6002 23.8466 46.9323 23.8466C48.3281 23.8466 49.4672 23.0164 49.4672 21.0359V16.177H48.3273V16.6242V16.625ZM46.929 20.3943C46.1047 20.3943 45.4064 19.6918 45.4064 18.7333C45.4064 17.7747 46.1039 17.0722 46.929 17.0722C47.7541 17.0722 48.3878 17.7747 48.3878 18.7333C48.3878 19.6918 47.7549 20.3943 46.929 20.3943ZM62.4071 13.3029H59.5524V21.2911H60.7569V18.2861H62.4062C63.7383 18.2861 65.0066 17.3275 65.0066 15.7949C65.0066 14.2623 63.7392 13.3037 62.4071 13.3037V13.3029ZM62.4708 17.1356H60.7569V14.3891H62.4741C62.8327 14.3888 63.1775 14.528 63.4366 14.7777C63.6956 15.0274 63.8489 15.3682 63.8643 15.729C63.8005 16.4315 63.2918 17.1348 62.4684 17.1348L62.4708 17.1356ZM69.7659 15.9827C68.8778 15.9827 67.9897 16.3656 67.6725 17.1966L68.751 17.6437C69.0045 17.1966 69.3856 17.0673 69.8296 17.0673C70.4642 17.0673 71.035 17.4502 71.0979 18.0893V18.1535C70.9074 18.0258 70.4004 17.834 69.8926 17.834C68.7478 17.834 67.6087 18.473 67.6087 19.6227C67.6087 20.7089 68.5605 21.4114 69.5712 21.4114C70.3955 21.4114 70.7766 21.0284 71.0938 20.6447H71.1576V21.2837H72.3025V18.2227C72.1757 16.8169 71.0971 15.9868 69.7675 15.9868L69.7659 15.9827ZM69.6391 20.391C69.2589 20.391 68.6873 20.1991 68.6873 19.6886C68.6873 19.0495 69.3848 18.8584 69.9556 18.8584C70.4634 18.8584 70.7169 18.9861 71.0342 19.1137C70.9074 19.8837 70.2728 20.3943 69.6383 20.3943L69.6391 20.391ZM76.2995 16.1746L74.9675 19.6243H74.9037L73.5078 16.1746H72.2395L74.3329 21.0334L73.1276 23.7173H74.3313L77.5662 16.1787H76.2987L76.2995 16.1746ZM65.642 21.2887H66.8474V13.3004H65.642V21.2887Z" fill="white"/>
<path d="M27.2762 9.73699C26.9491 10.115 26.5631 10.2986 26.0987 10.2986C25.9036 10.3029 25.7096 10.2675 25.5284 10.1946C25.3472 10.1217 25.1824 10.0129 25.0438 9.87452C24.7592 9.5937 24.6153 9.2157 24.6153 8.75946C24.6153 8.30323 24.7592 7.92523 25.0438 7.6444C25.1824 7.50608 25.3472 7.39724 25.5284 7.32438C25.7097 7.25152 25.9036 7.21612 26.0987 7.22029C26.5492 7.22029 26.8951 7.37923 27.1552 7.70535L27.2116 7.77617L27.6916 7.30758L27.6393 7.24746C27.45 7.02305 27.2131 6.84437 26.946 6.72463C26.6789 6.60488 26.3885 6.54715 26.0962 6.5557C25.8081 6.55064 25.5219 6.60424 25.2548 6.71329C24.9877 6.82234 24.7453 6.9846 24.542 7.19032C24.3387 7.39605 24.1788 7.64101 24.0718 7.9105C23.9648 8.18 23.913 8.46848 23.9194 8.75864C23.913 9.0488 23.9648 9.33728 24.0718 9.60678C24.1788 9.87627 24.3387 10.1212 24.542 10.327C24.7453 10.5327 24.9877 10.6949 25.2548 10.804C25.5219 10.913 25.8081 10.9666 26.0962 10.9616C26.421 10.9643 26.7424 10.8949 27.0374 10.7582C27.3157 10.6303 27.5621 10.4416 27.7587 10.2056L27.8061 10.1479L27.331 9.66946L27.2762 9.73699Z" fill="white"/>
<path d="M32.934 6.67047L31.4261 10.6852L29.91 8.50365L31.4007 6.78247V6.67047H30.583L28.8657 8.62471V6.67047H28.2115V10.8705H28.8657V9.64588L29.4161 9.02824L30.713 10.8705H32.1031L32.4973 9.79988H34.0772L34.4656 10.8705H35.2154L33.6331 6.67047H32.934ZM33.8335 9.14106H32.7303L33.2815 7.60188L33.8335 9.14106Z" fill="white"/>
<path d="M37.5336 8.28788C37.3701 8.53 37.079 8.64859 36.7331 8.64859C36.4935 8.64859 36.3021 8.58518 36.1762 8.46C36.1085 8.38842 36.0562 8.30361 36.0224 8.21082C35.9887 8.11803 35.9742 8.01924 35.9799 7.92059V6.67047H35.3257V8.01035C35.3257 8.404 35.4492 8.72188 35.7101 8.95659C35.975 9.19176 36.3188 9.3166 36.6717 9.30577C36.9925 9.31641 37.3059 9.20796 37.5524 9.00106L37.5336 9.13282V10.8705H38.2696V6.67047H37.5336V8.28788Z" fill="white"/>
<path d="M39.416 9.636L39.4152 9.10482V6.67047H38.761V10.8705H39.4332L41.3819 7.74106L41.3778 8.25988V10.8705H42.032V6.67047H41.2796L39.416 9.636Z" fill="white"/>
<path d="M45.0096 8.68209C45.128 8.6067 45.2297 8.50744 45.3081 8.39056C45.4177 8.22613 45.4748 8.03188 45.4717 7.83385C45.4748 7.67481 45.4431 7.51703 45.3786 7.37181C45.3141 7.22659 45.2186 7.09752 45.0988 6.99386C44.8591 6.77694 44.5459 6.66108 44.2238 6.67021H42.6857V10.8702H44.3031C44.6407 10.8749 44.9674 10.7497 45.2165 10.5202C45.3414 10.41 45.441 10.2737 45.5083 10.1208C45.5757 9.96793 45.6092 9.80214 45.6066 9.63491C45.6097 9.40773 45.5362 9.18621 45.3981 9.00656C45.2953 8.86959 45.1623 8.75852 45.0096 8.68209ZM44.6335 8.22421C44.5821 8.28165 44.5189 8.3271 44.4483 8.3574C44.3777 8.3877 44.3013 8.4021 44.2246 8.39962H43.3398V7.32903H44.2467C44.3195 7.32395 44.3925 7.33528 44.4604 7.3622C44.5283 7.38913 44.5894 7.43097 44.6392 7.48468C44.6877 7.53337 44.7262 7.59131 44.7522 7.65511C44.7783 7.71892 44.7915 7.78731 44.791 7.8563C44.7906 7.9253 44.7765 7.99351 44.7496 8.05695C44.7227 8.1204 44.6835 8.17782 44.6343 8.22585L44.6335 8.22421ZM44.748 10.0269C44.6954 10.0874 44.6301 10.1354 44.5568 10.1673C44.4836 10.1992 44.4042 10.2143 44.3244 10.2114H43.3398V9.05844H44.3031C44.3805 9.05446 44.4579 9.06609 44.5307 9.09265C44.6035 9.1192 44.6704 9.16015 44.7273 9.21309C44.7842 9.26603 44.83 9.32988 44.8621 9.40091C44.8941 9.47193 44.9118 9.54869 44.914 9.62668C44.9121 9.77652 44.8529 9.91988 44.7488 10.0269H44.748Z" fill="white"/>
<path d="M47.2351 6.67047L45.6528 10.8705H46.4026L46.7968 9.79988H48.3767L48.7651 10.8705H49.5149L47.9334 6.67047H47.2351ZM48.1346 9.14106H47.0307L47.5843 7.60188L48.1346 9.14106Z" fill="white"/>
<path d="M51.4088 6.50601C51.5112 6.50507 51.6123 6.48356 51.7064 6.44274C51.8004 6.40192 51.8854 6.34262 51.9563 6.2683C52.0273 6.19398 52.0829 6.10614 52.1197 6.00993C52.1565 5.91373 52.1739 5.81108 52.1709 5.70801V5.60013H51.5985V5.70801C51.6052 5.76952 51.5879 5.83125 51.5502 5.88013C51.5324 5.90274 51.5094 5.92073 51.4832 5.93261C51.457 5.9445 51.4285 5.94994 51.3998 5.94848C51.3704 5.9502 51.341 5.94508 51.314 5.93351C51.2869 5.92194 51.2628 5.90424 51.2436 5.88177C51.2033 5.83304 51.1837 5.77036 51.1888 5.70719V5.60013H50.6164V5.70801C50.6133 5.81418 50.6328 5.91979 50.6737 6.01768C50.7146 6.11558 50.776 6.20348 50.8536 6.27542C50.9265 6.34879 51.013 6.40692 51.1083 6.44649C51.2036 6.48606 51.3057 6.50629 51.4088 6.50601Z" fill="white"/>
<path d="M50.4475 9.636L50.4541 9.10482V6.67047H49.7999V10.8705H50.4573L52.4134 7.74106L52.4166 8.25988V10.8705H53.0708V6.67047H52.3038L50.4475 9.636Z" fill="white"/>
<path d="M53.3979 7.32929H54.5427V10.8705H55.2787V7.32929H56.3417V6.67047H53.3979V7.32929Z" fill="white"/>
<path d="M56.752 10.8705H59.2869V10.2116H57.4879V9.05871H59.1234V8.39988H57.4879V7.32929H59.2869V6.67047H56.752V10.8705Z" fill="white"/>
<path d="M63.7884 9.00352C63.6853 8.86773 63.5523 8.7578 63.4 8.68235C63.5184 8.60698 63.6201 8.50771 63.6985 8.39082C63.8081 8.22639 63.8652 8.03213 63.862 7.83411C63.8651 7.67501 63.8331 7.51721 63.7685 7.37199C63.7039 7.22678 63.6082 7.09774 63.4883 6.99411C63.2489 6.7774 62.936 6.66154 62.6142 6.67046H61.085V10.8705H62.6935C63.0311 10.8751 63.3578 10.75 63.6069 10.5205C63.7318 10.4102 63.8314 10.2739 63.8987 10.1211C63.9661 9.96819 63.9996 9.80239 63.9969 9.63517C64.0008 9.40686 63.9272 9.18406 63.7884 9.00352ZM63.0247 8.22529C62.9733 8.28268 62.9101 8.32811 62.8394 8.3584C62.7688 8.38869 62.6925 8.40313 62.6158 8.4007H61.7392V7.32929H62.6387C62.7115 7.3242 62.7845 7.33553 62.8524 7.36246C62.9203 7.38938 62.9814 7.43122 63.0312 7.48493C63.0797 7.53362 63.1182 7.59156 63.1442 7.65537C63.1703 7.71917 63.1835 7.78756 63.183 7.85656C63.1826 7.92555 63.1685 7.99376 63.1416 8.05721C63.1147 8.12066 63.0755 8.17807 63.0263 8.22611L63.0247 8.22529ZM63.1392 10.028C63.0866 10.0885 63.0213 10.1365 62.948 10.1684C62.8748 10.2003 62.7953 10.2153 62.7156 10.2125H61.7392V9.0587H62.6935C62.7709 9.05472 62.8482 9.06635 62.9211 9.0929C62.9939 9.11946 63.0608 9.16041 63.1177 9.21335C63.1746 9.26628 63.2204 9.33014 63.2524 9.40116C63.2845 9.47219 63.3021 9.54895 63.3043 9.62693C63.3024 9.77676 63.2432 9.92009 63.1392 10.0272V10.028Z" fill="white"/>
<path fill-rule="evenodd" clip-rule="evenodd" d="M17.7232 11.5344L7.78778 5.77789L15.6356 13.6401L17.7232 11.5344Z" fill="white"/>
<path fill-rule="evenodd" clip-rule="evenodd" d="M6.86968 5.83691C6.82289 5.90802 6.79476 5.9899 6.7879 6.07491V22.3652C6.79411 22.4152 6.80762 22.464 6.82797 22.5101L15.1386 14.1241L6.86968 5.83691Z" fill="white"/>
<path fill-rule="evenodd" clip-rule="evenodd" d="M15.6375 14.6064L7.48962 22.8269C7.5139 22.8175 7.53741 22.8062 7.55995 22.7931L17.8552 16.8275L15.6375 14.6064Z" fill="white"/>
<path fill-rule="evenodd" clip-rule="evenodd" d="M21.6175 13.7912L18.3326 11.888L16.1174 14.1231L18.4651 16.4709L21.6175 14.6444C21.6914 14.6008 21.7528 14.5385 21.7954 14.4637C21.8381 14.3888 21.8605 14.3041 21.8605 14.2178C21.8605 14.1315 21.8381 14.0467 21.7954 13.9719C21.7528 13.897 21.6914 13.8347 21.6175 13.7912Z" fill="white"/>
</g>
<defs>
<clipPath id="clip0_3_689">
<rect width="83" height="28" fill="white"/>
</clipPath>
</defs>
</svg>
