<svg width="360" height="70" viewBox="0 0 360 70" fill="none" xmlns="http://www.w3.org/2000/svg">
<path d="M72.5956 39.5734V43.9278H57V20.8262H72.4291V25.1806H61.5881V30.1316H71.3334V34.486H61.5881V39.5734H72.5956Z" fill="white"/>
<path d="M77.1426 32.3742C77.1426 25.5794 82.3618 20.4219 89.2458 20.4219C93.5358 20.4219 97.2256 22.4295 99.3551 25.6106L95.3981 28.0899C94.7156 27.0848 93.7966 26.2655 92.7231 25.705C91.6496 25.1444 90.455 24.8602 89.2458 24.8777C85.0565 24.8777 81.8662 28.0899 81.8662 32.3781C81.8662 36.6663 85.0565 39.8786 89.2458 39.8786C90.455 39.896 91.6496 39.6118 92.7231 39.0513C93.7966 38.4908 94.7156 37.6715 95.3981 36.6663L99.3551 39.1418C97.2256 42.3229 93.5474 44.3305 89.2458 44.3305C82.3734 44.3266 77.1426 39.1691 77.1426 32.3742Z" fill="white"/>
<path d="M111.966 35.6906H109.256V43.9278H104.633V20.8262H114.409C118.831 20.8262 122.192 24.0735 122.192 28.3929C122.198 29.9554 121.699 31.4776 120.769 32.7285C119.839 33.9794 118.529 34.8907 117.038 35.3242L122.772 43.9278H117.251L111.966 35.6906ZM109.256 31.6714H114.312C114.734 31.6753 115.152 31.5934 115.541 31.4307C115.931 31.2681 116.283 31.0279 116.578 30.7247C116.873 30.4215 117.105 30.0614 117.258 29.6661C117.412 29.2708 117.484 28.8483 117.472 28.4241C117.484 27.9998 117.412 27.5773 117.258 27.182C117.105 26.7867 116.873 26.4267 116.578 26.1234C116.283 25.8202 115.931 25.5801 115.541 25.4174C115.152 25.2547 114.734 25.1729 114.312 25.1767H109.236L109.256 31.6714Z" fill="white"/>
<path d="M143.451 39.5734V43.9278H127.859V20.8262H143.285V25.1806H132.447V30.1316H142.189V34.486H132.447V39.5734H143.451Z" fill="white"/>
<path d="M165.829 25.1806H159.212V43.9278H154.624V25.1806H147.973V20.8262H165.829V25.1806Z" fill="white"/>
<path d="M187.639 35.2891L185.514 37.632V43.9278H180.922V20.8262H185.514V31.3712L194.922 20.8262H200.773L190.632 31.9755L201.206 43.9278H195.22L187.639 35.2891Z" fill="white"/>
<path d="M209.816 20.8262H205.229V43.9278H209.816V20.8262Z" fill="white"/>
<path d="M233.025 25.1806H226.408V43.9278H221.82V25.1806H215.172V20.8262H233.025V25.1806Z" fill="white"/>
<path d="M235.588 32.3742C235.588 25.5794 240.807 20.4219 247.691 20.4219C251.981 20.4219 255.671 22.4295 257.8 25.6106L253.843 28.0899C253.161 27.0846 252.242 26.265 251.169 25.7045C250.095 25.144 248.9 24.8599 247.691 24.8777C243.502 24.8777 240.312 28.0899 240.312 32.3781C240.312 36.6663 243.502 39.8786 247.691 39.8786C248.9 39.896 250.095 39.6118 251.168 39.0513C252.242 38.4908 253.161 37.6715 253.843 36.6663L257.8 39.1418C255.671 42.3229 251.993 44.3305 247.691 44.3305C240.807 44.3305 235.588 39.173 235.588 32.3781" fill="white"/>
<path d="M282.435 20.8262V43.9278H277.847V34.486H267.672V43.9278H263.084V20.8262H267.672V30.1316H277.847V20.8262H282.435Z" fill="white"/>
<path d="M304.846 39.5734V43.9278H289.25V20.8262H304.679V25.1806H293.838V30.1316H303.58V34.486H293.838V39.5734H304.846Z" fill="white"/>
<path d="M330.415 20.8262V43.9278H325.761L315.319 28.7593V43.9278H310.73V20.8262H315.384L325.827 35.9908V20.8262H330.415Z" fill="white"/>
<g opacity="0.74">
<g opacity="0.74">
<g opacity="0.08">
<g opacity="0.08">
<path opacity="0.08" d="M34.2731 52.4785C34.2861 49.066 33.2938 45.7262 31.4216 42.8816C29.5494 40.0369 26.8815 37.8151 23.7552 36.4971C20.6289 35.179 17.1847 34.824 13.858 35.4769C10.5313 36.1298 7.47161 37.7613 5.06584 40.1651C2.66006 42.5688 1.01624 45.6368 0.342254 48.9812C-0.331733 52.3256 -0.0056187 55.7961 1.27936 58.9539C2.56434 62.1116 4.75046 64.8148 7.56129 66.7216C10.3721 68.6284 13.6814 69.6532 17.0707 69.6663C19.3211 69.6751 21.5512 69.2374 23.6336 68.3783C25.716 67.5193 27.61 66.2557 29.2074 64.6596C30.8048 63.0636 32.0743 61.1664 32.9435 59.0763C33.8127 56.9863 34.2645 54.7443 34.2731 52.4785Z" fill="white"/>
</g>
</g>
<g opacity="0.2">
<g opacity="0.2">
<path opacity="0.2" d="M36.0094 49.9609C36.0224 46.5479 35.0298 43.2077 33.1571 40.3628C31.2845 37.5179 28.6159 35.296 25.4889 33.9784C22.3619 32.6607 18.9171 32.3064 15.5901 32.9602C12.2631 33.614 9.20338 35.2467 6.79806 37.6516C4.39273 40.0565 2.74982 43.1256 2.07714 46.4708C1.40446 49.8159 1.73223 53.2868 3.01899 56.4444C4.30575 59.602 6.49368 62.3044 9.30605 64.2098C12.1184 66.1152 15.4288 67.138 18.8186 67.1488C23.3615 67.1633 27.7243 65.3609 30.9478 62.1379C34.1714 58.9149 35.992 54.535 36.0094 49.9609Z" fill="white"/>
</g>
</g>
<g opacity="0.31">
<g opacity="0.31">
<path opacity="0.31" d="M37.7594 47.4375C37.7724 44.025 36.7801 40.6852 34.9079 37.8405C33.0358 34.9959 30.3678 32.7741 27.2415 31.456C24.1153 30.138 20.671 29.783 17.3443 30.4359C14.0176 31.0888 10.9579 32.7203 8.55216 35.124C6.14639 37.5278 4.50257 40.5958 3.82858 43.9402C3.15459 47.2846 3.48071 50.7551 4.76569 53.9129C6.05066 57.0706 8.23679 59.7738 11.0476 61.6806C13.8584 63.5874 17.1677 64.6122 20.557 64.6253C22.8074 64.6341 25.0375 64.1964 27.1199 63.3373C29.2024 62.4783 31.0963 61.2147 32.6937 59.6186C34.2911 58.0226 35.5607 56.1254 36.4298 54.0353C37.299 51.9453 37.7508 49.7033 37.7594 47.4375Z" fill="white"/>
</g>
</g>
<g opacity="0.43">
<g opacity="0.43">
<path opacity="0.43" d="M39.5153 44.9199C39.5283 41.5074 38.536 38.1676 36.6638 35.323C34.7916 32.4783 32.1237 30.2565 28.9974 28.9385C25.8711 27.6205 22.4268 27.2655 19.1002 27.9184C15.7735 28.5713 12.7138 30.2027 10.308 32.6065C7.90225 35.0102 6.25843 38.0782 5.58444 41.4226C4.91045 44.767 5.23657 48.2375 6.52155 51.3953C7.80652 54.553 9.99265 57.2562 12.8035 59.163C15.6143 61.0699 18.9236 62.0946 22.3129 62.1077C24.5633 62.1165 26.7934 61.6788 28.8758 60.8197C30.9582 59.9607 32.8522 58.6971 34.4496 57.101C36.047 55.505 37.3165 53.6078 38.1857 51.5177C39.0549 49.4277 39.5067 47.1857 39.5153 44.9199Z" fill="white"/>
</g>
</g>
<g opacity="0.54">
<g opacity="0.54">
<path opacity="0.54" d="M41.2575 42.4004C41.2705 38.9879 40.2781 35.6481 38.406 32.8034C36.5338 29.9588 33.8659 27.7369 30.7396 26.4189C27.6133 25.1009 24.169 24.7459 20.8424 25.3988C17.5157 26.0517 14.456 27.6832 12.0502 30.0869C9.64443 32.4907 8.00062 35.5587 7.32663 38.9031C6.65264 42.2475 6.97876 45.718 8.26373 48.8758C9.54871 52.0335 11.7348 54.7367 14.5457 56.6435C17.3565 58.5503 20.6658 59.5751 24.055 59.5882C26.3055 59.5969 28.5355 59.1593 30.618 58.3002C32.7004 57.4412 34.5944 56.1776 36.1918 54.5815C37.7892 52.9855 39.0587 51.0883 39.9279 48.9982C40.7971 46.9082 41.2488 44.6662 41.2575 42.4004Z" fill="white"/>
</g>
</g>
<g opacity="0.65">
<g opacity="0.65">
<path opacity="0.65" d="M43.0075 39.8789C43.0205 36.4664 42.0281 33.1266 40.156 30.2819C38.2838 27.4373 35.6159 25.2155 32.4896 23.8974C29.3633 22.5794 25.919 22.2244 22.5924 22.8773C19.2657 23.5302 16.206 25.1617 13.8002 27.5654C11.3944 29.9692 9.75062 33.0372 9.07663 36.3816C8.40264 39.726 8.72876 43.1965 10.0137 46.3543C11.2987 49.512 13.4848 52.2152 16.2957 54.122C19.1065 56.0288 22.4158 57.0536 25.805 57.0667C28.0555 57.0755 30.2855 56.6378 32.368 55.7787C34.4504 54.9197 36.3444 53.6561 37.9418 52.06C39.5392 50.464 40.8087 48.5668 41.6779 46.4767C42.5471 44.3867 42.9988 42.1447 43.0075 39.8789Z" fill="white"/>
</g>
</g>
<g opacity="0.77">
<g opacity="0.77">
<path opacity="0.77" d="M44.7497 37.3613C44.7627 33.9488 43.7703 30.609 41.8982 27.7644C40.026 24.9197 37.3581 22.6979 34.2318 21.3799C31.1055 20.0619 27.6612 19.7069 24.3345 20.3598C21.0079 21.0127 17.9482 22.6441 15.5424 25.0479C13.1366 27.4516 11.4928 30.5197 10.8188 33.864C10.1448 37.2084 10.4709 40.6789 11.7559 43.8367C13.0409 46.9945 15.227 49.6977 18.0379 51.6045C20.8487 53.5113 24.158 54.536 27.5472 54.5492C29.7977 54.5579 32.0277 54.1202 34.1102 53.2612C36.1926 52.4021 38.0866 51.1385 39.684 49.5424C41.2814 47.9464 42.5509 46.0492 43.4201 43.9591C44.2892 41.8691 44.741 39.6272 44.7497 37.3613Z" fill="white"/>
</g>
</g>
<g opacity="0.88">
<g opacity="0.88">
<path opacity="0.88" d="M46.4938 34.8379C46.5053 31.4257 45.5117 28.0867 43.6386 25.2431C41.7654 22.3994 39.097 20.1788 35.9706 18.862C32.8441 17.5452 29.4001 17.1913 26.0739 17.8451C22.7477 18.4989 19.6888 20.1309 17.2838 22.535C14.8788 24.9391 13.2357 28.0071 12.5624 31.3513C11.889 34.6955 12.2156 38.1656 13.5008 41.3229C14.786 44.4802 16.9722 47.1829 19.7828 49.0894C22.5935 50.9959 25.9025 52.0204 29.2914 52.0335C31.5418 52.0423 33.7719 51.6046 35.8543 50.7455C37.9368 49.8865 39.8307 48.6229 41.4281 47.0268C43.0255 45.4308 44.2951 43.5336 45.1642 41.4435C46.0334 39.3535 46.4852 37.1115 46.4938 34.8457" fill="white"/>
</g>
</g>
<g opacity="0.74">
<path opacity="0.74" d="M48.2419 32.3203C48.2548 28.9078 47.2625 25.568 45.3904 22.7234C43.5182 19.8787 40.8503 17.6569 37.724 16.3389C34.5977 15.0208 31.1534 14.6658 27.8267 15.3187C24.5001 15.9716 21.4404 17.6031 19.0346 20.0069C16.6288 22.4106 14.985 25.4786 14.311 28.823C13.637 32.1674 13.9631 35.6379 15.2481 38.7957C16.5331 41.9534 18.7192 44.6566 21.53 46.5634C24.3409 48.4702 27.6502 49.495 31.0394 49.5081C33.2898 49.5169 35.5199 49.0792 37.6023 48.2201C39.6848 47.3611 41.5788 46.0975 43.1761 44.5014C44.7735 42.9054 46.0431 41.0082 46.9123 38.9181C47.7814 36.8281 48.2332 34.5861 48.2419 32.3203Z" fill="white"/>
</g>
</g>
</g>
<path d="M48.2399 32.3203C48.2529 28.9078 47.2606 25.568 45.3884 22.7234C43.5162 19.8787 40.8483 17.6569 37.722 16.3389C34.5957 15.0208 31.1515 14.6658 27.8248 15.3187C24.4981 15.9716 21.4384 17.6031 19.0326 20.0069C16.6269 22.4106 14.983 25.4786 14.3091 28.823C13.6351 32.1674 13.9612 35.6379 15.2462 38.7957C16.5311 41.9534 18.7173 44.6566 21.5281 46.5634C24.3389 48.4702 27.6482 49.495 31.0375 49.5081C33.2879 49.5169 35.518 49.0792 37.6004 48.2201C39.6828 47.3611 41.5768 46.0975 43.1742 44.5014C44.7716 42.9054 46.0411 41.0082 46.9103 38.9181C47.7795 36.8281 48.2313 34.5861 48.2399 32.3203Z" fill="white"/>
<path d="M30.0703 40.6242L32.4708 37.0494C34.3641 38.8544 37.1364 40.1135 39.773 40.1135C42.0961 40.1135 44.0669 39.0259 44.0669 37.3847C44.0669 35.4082 41.4302 34.7962 39.0335 34.2192C34.5693 33.1628 30.9028 31.0187 30.9028 26.8981C30.9028 22.7113 34.519 19.9863 39.7614 19.9863C43.2461 19.9863 46.1189 21.2104 47.8419 22.914L46.3396 26.6954C45.0193 25.4011 42.0419 24.181 39.7072 24.181C37.3725 24.181 35.7154 25.2374 35.7154 26.6954C35.7154 28.5003 38.1508 29.2839 40.3151 29.7595C42.4794 30.2351 48.8718 31.8022 48.8718 37.1664C48.8718 41.3883 44.8838 44.2809 39.7769 44.2809C36.1916 44.2809 32.4399 42.8151 30.0742 40.6047" fill="black"/>
<path d="M20.263 14.2737C20.7003 12.5593 21.7262 11.0441 23.1687 9.98241C25.8146 7.75001 25.1177 5.93401 26.7123 5.59858C28.3069 5.26314 31.6379 1.81622 34.0121 2.00129C36.3862 2.18636 37.3548 0.289394 38.8549 0.717368C40.355 1.14534 44.4774 1.24944 47.1941 4.44189C49.9109 7.63434 52.7221 10.9887 53.5962 12.0297C54.4703 13.0708 55.616 13.7532 54.7774 15.6502C53.9387 17.5471 54.234 19.259 53.0883 20.2769C51.9425 21.2948 52.0252 22.2548 50.8913 19.5829C50.0928 17.4974 49.1087 15.4847 47.9501 13.5681C46.639 11.4051 46.8988 12.0991 45.5877 11.8331C44.2766 11.5671 44.2648 10.8037 45.1389 12.5271C45.8785 13.7781 46.4955 15.0949 46.9815 16.4598C46.9815 16.8878 38.4533 15.8352 34.4137 15.9162C30.374 15.9972 20.0858 15.5692 20.263 14.2737Z" fill="#E20613"/>
<path style="mix-blend-mode:multiply" opacity="0.6" d="M21.2064 12.7346C21.2064 12.7346 24.2185 10.4213 24.8799 8.96384C25.5414 7.50642 25.4351 6.51167 26.1556 6.396C27.2822 5.97773 28.3196 5.35802 29.2149 4.56845C30.0772 3.86287 32.9002 2.31291 33.9397 2.42858C34.7647 2.41003 35.5833 2.28162 36.3729 2.04688C36.6446 2.04688 36.1012 4.2677 35.6878 5.00798C35.2744 5.74826 32.3687 7.07845 31.7072 8.57057C31.2783 9.50528 31.0569 10.5185 31.0576 11.5432C30.9398 12.3365 30.7257 13.1131 30.4197 13.8566C30.4197 13.8566 24.5138 14.7704 23.6043 14.6894C22.6947 14.6085 20.9111 13.0469 21.2064 12.7346Z" fill="url(#paint0_linear_465_40998)"/>
<path style="mix-blend-mode:multiply" opacity="0.6" d="M39.0869 2.08131C39.0869 2.08131 38.8507 2.01191 40.0201 2.52085C41.0027 2.92493 42.0611 3.12198 43.1266 3.0992C43.7946 3.22718 44.4264 3.49499 44.9789 3.88428C45.5314 4.27358 45.9915 4.77517 46.3276 5.35473C46.9823 7.31968 47.4644 9.33578 47.7687 11.3811C47.7687 11.9594 47.9813 13.2896 47.7687 12.7575C47.5561 12.2254 47.5088 11.8322 46.6702 11.7975C45.8315 11.7628 44.7448 11.7975 44.2369 10.9531C43.729 10.1087 41.5911 6.89312 41.1304 6.17598C40.6697 5.45883 39.0869 2.08131 39.0869 2.08131Z" fill="url(#paint1_linear_465_40998)"/>
<path opacity="0.25" d="M47.9029 10.6764C47.9029 10.6764 47.7376 14.1465 48.9306 14.5629C50.1236 14.9793 51.1158 15.7774 52.108 15.1643C53.1002 14.5513 53.2892 14.158 53.5845 14.4819C53.8797 14.8058 53.5845 13.7185 53.4309 14.8636C53.2773 16.0087 53.2773 16.749 53.1947 17.6165C53.1833 18.1506 53.1399 18.6836 53.0647 19.2127C52.9702 19.606 52.2497 19.8373 52.3442 20.0802C52.4387 20.3232 53.0293 20.2538 53.5254 18.9236C53.9112 17.9766 54.2077 16.997 54.4113 15.9972C54.7656 14.6438 55.0846 14.158 54.7893 13.6838C53.2183 11.3704 53.3955 12.0066 52.0017 11.0928C50.6079 10.179 48.6353 5.77206 47.8202 6.29257C47.0052 6.81308 47.8202 8.2705 47.8202 8.84884C47.8041 9.45917 47.8317 10.0699 47.9029 10.6764Z" fill="url(#paint2_linear_465_40998)"/>
<path d="M48.5977 14.2619C49.2731 14.7013 50.0615 14.9452 50.8722 14.9657C51.6828 14.9861 52.483 14.7823 53.1807 14.3775C54.7517 13.6141 53.2988 16.0316 53.5941 17.6972C53.8421 19.039 51.8459 20.6699 51.4089 20.6236C50.9719 20.5773 49.4954 15.1178 48.5977 14.2619Z" fill="url(#paint3_linear_465_40998)"/>
<path style="mix-blend-mode:multiply" opacity="0.6" d="M45.0424 11.4975C44.7471 11.0695 45.7748 10.9423 45.8456 9.91282C45.9165 8.88338 46.0464 6.90545 46.0701 6.57001C46.0937 6.23457 46.2591 5.19355 46.5544 5.99167C46.8497 6.78978 46.8024 7.56475 47.2276 9.05688C47.4649 9.93868 47.6113 10.8416 47.6647 11.752C47.9127 13.325 48.6923 14.7593 48.3734 14.3082C48.0545 13.8571 47.3103 11.8329 46.6016 11.8329C45.8929 11.8329 45.2314 11.8329 45.0424 11.4975Z" fill="url(#paint4_linear_465_40998)"/>
<path opacity="0.25" d="M39.6556 1.79297C39.3524 2.04451 39.1069 2.35589 38.9351 2.70675C38.746 3.25727 38.6736 3.83979 38.7224 4.41864C38.719 4.88747 38.8679 5.34523 39.1477 5.72569C39.4075 6.1421 39.1477 6.47754 38.8169 6.2115C38.5532 6.05059 38.3418 5.81919 38.2079 5.54458C38.074 5.26997 38.023 4.96359 38.061 4.66154C38.061 3.73619 37.683 2.84555 38.1437 2.24407C38.6043 1.6426 39.5847 1.27246 39.6556 1.79297Z" fill="url(#paint5_linear_465_40998)"/>
<g opacity="0.5">
<path opacity="0.5" d="M44.4529 11.0812C44.4529 11.0812 41.9606 8.28202 40.5786 6.9634C39.1966 5.64478 38.6887 5.25151 38.7478 4.56907C38.8068 3.88663 38.4643 2.64897 38.9368 2.33667C39.4093 2.02436 39.5156 0.705743 40.118 3.07695C40.7204 5.44815 42.2087 5.39031 43.0355 7.25258C43.8623 9.11484 44.949 10.4335 44.4529 11.0812Z" fill="#771614"/>
<path opacity="0.5" d="M44.4047 11.012C44.4047 11.012 42.0423 8.29377 40.6367 7.00985C39.2311 5.72593 38.8058 5.35579 38.8649 4.69648C38.9239 4.03717 38.5932 2.82265 39.0539 2.53347C39.5145 2.2443 39.6208 0.937252 40.2351 3.25062C40.8493 5.56399 42.2667 5.56399 43.0581 7.28745C43.8495 9.01091 44.889 10.3758 44.4047 11.012Z" fill="#721513"/>
<path opacity="0.5" d="M44.3557 10.9429C44.3557 10.9429 41.9933 8.31719 40.694 7.06797C39.3947 5.81875 38.9222 5.46018 38.9813 4.7546C39.0403 4.04902 38.7214 2.95017 39.1585 2.661C39.5955 2.37183 39.7254 1.11104 40.3397 3.35501C40.9539 5.59898 42.2886 5.58742 43.0564 7.27618C43.8242 8.96494 44.8164 10.3298 44.3557 10.9429Z" fill="#6D1413"/>
<path opacity="0.5" d="M44.2974 10.8719C44.2974 10.8719 42.0295 8.32719 40.7538 7.12424C39.4782 5.92128 39.0529 5.56271 39.1002 4.89183C39.1474 4.22096 38.8521 3.14524 39.2773 2.85607C39.7026 2.5669 39.8325 1.36394 40.364 3.52694C40.8956 5.68994 42.2421 5.70151 42.9863 7.33244C43.7304 8.96337 44.7581 10.2704 44.2974 10.8719Z" fill="#681412"/>
<path opacity="0.5" d="M44.2504 10.8037C44.2504 10.8037 42.0534 8.36313 40.825 7.20645C39.5965 6.04976 39.1713 5.70276 39.2186 5.10128C39.2658 4.49981 38.9705 3.40096 39.3839 3.13492C39.7973 2.86888 39.9273 1.6775 40.447 3.77109C40.9667 5.86469 42.266 5.87626 42.9866 7.46092C43.7071 9.04557 44.6875 10.2254 44.2504 10.8037Z" fill="#631311"/>
<path opacity="0.5" d="M44.2032 10.7349C44.2032 10.7349 42.0771 8.35215 40.8959 7.26486C39.7147 6.17758 39.3249 5.77274 39.3249 5.18283C39.3249 4.59292 39.0886 3.55191 39.4903 3.28587C39.8919 3.01984 40.0218 1.87472 40.5297 3.91048C41.0376 5.94625 42.2661 5.94624 42.963 7.47307C43.6599 8.99989 44.6284 10.1797 44.2032 10.7349Z" fill="#5E1211"/>
<path opacity="0.5" d="M44.1588 10.6765C44.1588 10.6765 42.1036 8.36318 40.9578 7.28746C39.8121 6.21174 39.4104 5.88787 39.4577 5.3211C39.5049 4.75432 39.2333 3.74801 39.6231 3.49354C40.0129 3.23907 40.1428 2.12865 40.6271 4.08345C41.1114 6.03824 42.3044 6.04981 42.9895 7.5535C43.6745 9.05718 44.5604 10.1213 44.1588 10.6765Z" fill="#591110"/>
<path opacity="0.5" d="M44.051 10.583C44.051 10.583 42.0784 8.37376 40.9799 7.33275C39.8814 6.29173 39.4916 5.97943 39.5271 5.43578C39.5625 4.89214 39.3144 3.90896 39.6806 3.66605C40.0468 3.42315 40.2003 2.34744 40.661 4.23283C41.1217 6.11823 42.2674 6.12979 42.9171 7.55251C43.5667 8.97524 44.4881 10.0741 44.051 10.583Z" fill="#54100F"/>
<path opacity="0.5" d="M44.05 10.5149C44.05 10.5149 42.1483 8.36351 41.0852 7.38032C40.0222 6.39714 39.656 6.05014 39.7032 5.56433C39.7505 5.07852 39.4906 4.09534 39.845 3.864C40.1993 3.63267 40.3529 2.59165 40.8017 4.39608C41.2506 6.2005 42.3255 6.23521 42.9515 7.60009C43.5775 8.96498 44.428 10.0291 44.05 10.5149Z" fill="#4F100F"/>
<path opacity="0.5" d="M44.0505 10.4446C44.0505 10.4446 42.1724 8.36255 41.1565 7.4372C40.1407 6.51185 39.7745 6.18798 39.8218 5.67904C39.869 5.1701 39.6092 4.27945 39.9517 4.04811C40.2943 3.81678 40.4478 2.82203 40.8849 4.56862C41.3219 6.31522 42.3495 6.32678 42.9401 7.6454C43.5307 8.96402 44.3576 9.97034 44.0505 10.4446Z" fill="#4A0F0E"/>
<path opacity="0.5" d="M43.944 10.3749C43.944 10.3749 42.1959 8.42009 41.2155 7.48317C40.2351 6.54626 39.8925 6.32649 39.9398 5.80598C39.987 5.28547 39.739 4.45266 40.0697 4.24445C40.4005 4.03625 40.554 3.08777 40.9674 4.73026C41.3808 6.37275 42.3612 6.43059 42.94 7.69137C43.5188 8.95216 44.2984 9.92378 43.944 10.3749Z" fill="#450E0D"/>
<path opacity="0.5" d="M43.8972 10.3061C43.8972 10.3061 42.2199 8.43225 41.2868 7.5416C40.3536 6.65096 40.0111 6.38492 40.1056 5.93381C40.2001 5.48271 39.9166 4.63832 40.2355 4.43012C40.5544 4.22192 40.708 3.27344 41.1096 4.8928C41.5112 6.51215 42.4207 6.52372 42.9759 7.73824C43.531 8.95276 44.2279 9.86654 43.8972 10.3061Z" fill="#3F0D0D"/>
<path opacity="0.5" d="M43.8503 10.2359C43.8503 10.2359 42.2439 8.44309 41.3462 7.58714C40.4485 6.73119 40.165 6.49986 40.165 6.04875C40.165 5.59764 39.9878 4.82266 40.2831 4.61446C40.5784 4.40625 40.7556 3.52718 41.1336 5.054C41.5116 6.58082 42.3975 6.62709 42.8699 7.77221C43.3424 8.91733 44.1693 9.81954 43.8503 10.2359Z" fill="#3A0C0C"/>
<path opacity="0.5" d="M43.7906 10.1677C43.7906 10.1677 42.2669 8.45582 41.4282 7.64615C40.5896 6.83647 40.247 6.59356 40.247 6.17716C40.247 5.76075 40.0699 5.02047 40.3652 4.81227C40.6605 4.60407 40.8258 3.77125 41.1802 5.22868C41.5346 6.6861 42.3614 6.7208 42.8693 7.81965C43.3772 8.9185 44.0505 9.77444 43.7906 10.1677Z" fill="#350B0B"/>
<path opacity="0.5" d="M43.7435 10.0981C43.7435 10.0981 42.2906 8.46722 41.4756 7.70381C40.6605 6.94039 40.3771 6.69749 40.4125 6.30422C40.4479 5.91095 40.2471 5.14754 40.5188 4.99717C40.7905 4.8468 40.9795 4.00242 41.322 5.39044C41.6646 6.77846 42.4205 6.81316 42.9048 7.86574C43.3891 8.91832 44.0506 9.71643 43.7435 10.0981Z" fill="#300B0B"/>
<path opacity="0.5" d="M43.6962 10.0286C43.6962 10.0286 42.3142 8.47864 41.5464 7.71522C40.7786 6.95181 40.507 6.80145 40.507 6.43131C40.507 6.06117 40.3534 5.36716 40.6133 5.19366C40.8731 5.02015 41.0503 4.23361 41.381 5.55223C41.7118 6.87085 42.4205 6.91711 42.8693 7.8656C43.3182 8.81407 43.9679 9.67002 43.6962 10.0286Z" fill="#2B0A0A"/>
<path opacity="0.5" d="M43.6371 9.95983C43.6371 9.95983 42.3378 8.50241 41.6055 7.8084C40.8731 7.11439 40.6251 6.90619 40.6487 6.54761C40.6723 6.18904 40.507 5.5413 40.7432 5.39093C40.9794 5.24056 41.1802 4.48872 41.4873 5.72637C41.7945 6.96402 42.4559 7.02185 42.8812 7.97033C43.3064 8.91882 43.897 9.62439 43.6371 9.95983Z" fill="#260909"/>
<path opacity="0.5" d="M43.5918 9.8907C43.5918 9.8907 42.4106 8.51425 41.6783 7.85494C40.9459 7.19563 40.7451 7.01056 40.7688 6.69826C40.7924 6.38595 40.6388 5.74978 40.8633 5.59941C41.0877 5.44904 41.2885 4.7319 41.5838 5.91171C41.8791 7.09153 42.4815 7.1378 42.8831 8.01688C43.2847 8.89596 43.8399 9.52056 43.5918 9.8907Z" fill="#210809"/>
<path opacity="0.5" d="M43.5427 9.82162C43.5427 9.82162 42.3615 8.52614 41.7354 7.91309C41.1094 7.30005 40.8614 7.11498 40.885 6.75641C40.9086 6.39784 40.755 5.8542 40.9795 5.71539C41.2039 5.57659 41.3929 4.89415 41.6646 6.00457C41.9362 7.11498 42.4914 7.16125 42.8458 7.99406C43.2001 8.82687 43.7671 9.52088 43.5427 9.82162Z" fill="#1C0708"/>
<path opacity="0.5" d="M43.4867 9.75055C43.4867 9.75055 42.4 8.53604 41.7976 7.9577C41.1952 7.37935 40.9826 7.21742 41.0062 6.91668C41.0298 6.61594 40.8881 6.08386 41.0889 5.95663C41.2897 5.82939 41.5023 5.18165 41.7504 6.2111C41.9984 7.24055 42.5063 7.36778 42.8607 8.08493C43.215 8.80207 43.7111 9.51922 43.4867 9.75055Z" fill="#170707"/>
<path opacity="0.5" d="M43.4385 9.68192C43.4385 9.68192 42.4227 8.52523 41.8675 8.01629C41.3124 7.50735 41.0997 7.32228 41.1234 7.04468C41.147 6.76708 41.0171 6.2697 41.206 6.14247C41.395 6.01523 41.6077 5.41376 41.8439 6.38537C42.0801 7.35698 42.529 7.40325 42.8597 8.13196C43.1905 8.86067 43.6393 9.41588 43.4385 9.68192Z" fill="#120607"/>
<path opacity="0.5" d="M43.3894 9.61283C43.3894 9.61283 42.4445 8.56025 41.9247 8.06288C41.405 7.5655 41.2278 7.4267 41.2396 7.17223C41.2515 6.91776 41.1452 6.44352 41.3105 6.32785C41.4759 6.21218 41.7003 5.65698 41.9247 6.54762C42.1492 7.43827 42.539 7.4961 42.8461 8.17854C43.1532 8.86099 43.5666 9.36993 43.3894 9.61283Z" fill="#0D0506"/>
</g>
<g style="mix-blend-mode:screen" opacity="0.36">
<path d="M20.263 14.2737C20.7003 12.5593 21.7262 11.0441 23.1687 9.98241C25.8146 7.75001 25.1177 5.93401 26.7123 5.59858C28.3069 5.26314 31.6379 1.81622 34.0121 2.00129C36.3862 2.18636 37.3548 0.289394 38.8549 0.717368C40.355 1.14534 44.4774 1.24944 47.1941 4.44189C49.9109 7.63434 52.7221 10.9887 53.5962 12.0297C54.4703 13.0708 55.616 13.7532 54.7774 15.6502C53.9387 17.5471 54.234 19.259 53.0883 20.2769C51.9425 21.2948 52.0252 22.2548 50.8913 19.5829C50.0928 17.4974 49.1087 15.4847 47.9501 13.5681C46.639 11.4051 46.8988 12.0991 45.5877 11.8331C44.2766 11.5671 44.2648 10.8037 45.1389 12.5271C45.8785 13.7781 46.4955 15.0949 46.9815 16.4598C46.9815 16.8878 38.4533 15.8352 34.4137 15.9162C30.374 15.9972 20.0858 15.5692 20.263 14.2737Z" fill="#E20613"/>
</g>
<path d="M47.4895 16.216C47.4895 16.1235 47.2769 13.2549 41.5835 13.4631C35.8902 13.6713 38.8668 14.053 35.335 13.4631C32.4414 12.7723 29.4642 12.4765 26.4879 12.584C21.7631 12.584 20.1922 12.3527 19.1882 13.5441C19.1882 13.5441 16.5069 19.8017 20.5229 20.2181C24.8416 19.4097 29.2723 19.3549 33.6105 20.0562C38.04 20.889 45.1035 23.908 48.0919 23.0405C48.0919 23.0405 50.9976 22.0804 48.8951 19.1193C48.5474 18.0997 48.0755 17.1249 47.4895 16.216Z" fill="white"/>
<path d="M20.8535 19.7447C23.9482 18.8887 32.6654 19.4786 32.6654 19.4786C35.2522 19.6637 43.6269 22.4166 43.6269 22.4166C44.3699 22.7427 45.175 22.9113 45.9892 22.9113C46.8035 22.9113 47.6086 22.7427 48.3516 22.4166C50.714 21.445 46.5562 15.2683 46.5562 15.2683C46.5562 15.2683 46.8161 14.4586 44.9616 13.9497C43.1071 13.4407 44.7372 14.2042 45.3278 14.9907C45.9184 15.7772 46.7806 16.7489 46.3908 17.8593C46.0011 18.9697 45.6939 20.9592 42.8473 20.2652C39.6674 19.4571 36.4086 18.9841 33.1261 18.854C30.7637 18.935 28.3186 18.6921 27.2201 18.9234C26.1216 19.1548 21.7512 19.016 20.8535 19.7447Z" fill="url(#paint6_linear_465_40998)"/>
<path d="M31.977 13.6952C31.977 13.6952 23.4134 12.5385 21.3463 13.3482C19.2792 14.1579 18.8658 14.9907 19.291 15.569C19.7163 16.1474 21.9841 14.6206 23.5906 14.2273C25.197 13.834 34.4693 14.5165 31.977 13.6952Z" fill="white"/>
<path d="M50.6068 21.2009C50.1018 21.5117 49.7189 21.9805 49.5201 22.5311C49.0929 23.2989 48.9911 24.2004 49.2366 25.0411C49.6264 25.8624 50.7722 27.7015 52.8747 27.1926C54.9772 26.6836 56.6191 25.2262 56.5955 24.324C56.4336 23.2204 56.0695 22.1546 55.5206 21.1778C54.8237 20.0211 52.4731 20.2062 52.4731 20.2062C51.8341 20.5064 51.2112 20.8384 50.6068 21.2009Z" fill="white"/>
<path d="M50.4272 26.1172C50.3209 26.0131 56.2505 25.6083 54.6204 20.9121C54.6204 20.9121 57.1363 23.052 55.8016 25.2266C55.8607 25.2266 53.2384 28.4653 50.4272 26.1172Z" fill="url(#paint7_linear_465_40998)"/>
<defs>
<linearGradient id="paint0_linear_465_40998" x1="28.6508" y1="14.7223" x2="29.7167" y2="1.11612" gradientUnits="userSpaceOnUse">
<stop stop-color="#5E0B00"/>
<stop offset="1" stop-color="#BD1622" stop-opacity="0"/>
</linearGradient>
<linearGradient id="paint1_linear_465_40998" x1="768.006" y1="396.444" x2="771.756" y2="298.781" gradientUnits="userSpaceOnUse">
<stop stop-color="#5E0B00"/>
<stop offset="1" stop-color="#BD1622" stop-opacity="0"/>
</linearGradient>
<linearGradient id="paint2_linear_465_40998" x1="50.9688" y1="19.6259" x2="52.022" y2="6.18172" gradientUnits="userSpaceOnUse">
<stop stop-color="#F6B8A9" stop-opacity="0"/>
<stop offset="0.01" stop-color="#F7BCAE" stop-opacity="0.06"/>
<stop offset="0.07" stop-color="#F8CCC1" stop-opacity="0.28"/>
<stop offset="0.13" stop-color="#FAD9D1" stop-opacity="0.47"/>
<stop offset="0.18" stop-color="#FCE5DF" stop-opacity="0.63"/>
<stop offset="0.24" stop-color="#FDEEEB" stop-opacity="0.77"/>
<stop offset="0.3" stop-color="#FEF6F4" stop-opacity="0.87"/>
<stop offset="0.36" stop-color="#FEFBFA" stop-opacity="0.94"/>
<stop offset="0.42" stop-color="#FFFEFE" stop-opacity="0.99"/>
<stop offset="0.49" stop-color="white"/>
<stop offset="0.59" stop-color="#FFFEFE" stop-opacity="0.99"/>
<stop offset="0.66" stop-color="#FFFCFB" stop-opacity="0.95"/>
<stop offset="0.72" stop-color="#FEF8F6" stop-opacity="0.89"/>
<stop offset="0.77" stop-color="#FDF2EF" stop-opacity="0.81"/>
<stop offset="0.82" stop-color="#FCEAE5" stop-opacity="0.7"/>
<stop offset="0.87" stop-color="#FBE0DA" stop-opacity="0.57"/>
<stop offset="0.91" stop-color="#FAD5CC" stop-opacity="0.41"/>
<stop offset="0.96" stop-color="#F8C8BC" stop-opacity="0.22"/>
<stop offset="1" stop-color="#F6B8A9" stop-opacity="0"/>
</linearGradient>
<linearGradient id="paint3_linear_465_40998" x1="51.2865" y1="20.2211" x2="51.8004" y2="13.661" gradientUnits="userSpaceOnUse">
<stop stop-color="#BD1622" stop-opacity="0"/>
<stop offset="1" stop-color="#5E0B00"/>
</linearGradient>
<linearGradient id="paint4_linear_465_40998" x1="360.542" y1="188.529" x2="371.264" y2="189.296" gradientUnits="userSpaceOnUse">
<stop stop-color="#BD1622" stop-opacity="0"/>
<stop offset="1" stop-color="#5E0B00"/>
</linearGradient>
<linearGradient id="paint5_linear_465_40998" x1="235.936" y1="9.63942" x2="235.936" y2="-10.0254" gradientUnits="userSpaceOnUse">
<stop stop-color="#F6B8A9" stop-opacity="0"/>
<stop offset="0.01" stop-color="#F7BCAE" stop-opacity="0.06"/>
<stop offset="0.07" stop-color="#F8CCC1" stop-opacity="0.28"/>
<stop offset="0.13" stop-color="#FAD9D1" stop-opacity="0.47"/>
<stop offset="0.18" stop-color="#FCE5DF" stop-opacity="0.63"/>
<stop offset="0.24" stop-color="#FDEEEB" stop-opacity="0.77"/>
<stop offset="0.3" stop-color="#FEF6F4" stop-opacity="0.87"/>
<stop offset="0.36" stop-color="#FEFBFA" stop-opacity="0.94"/>
<stop offset="0.42" stop-color="#FFFEFE" stop-opacity="0.99"/>
<stop offset="0.49" stop-color="white"/>
<stop offset="0.59" stop-color="#FFFEFE" stop-opacity="0.99"/>
<stop offset="0.66" stop-color="#FFFCFB" stop-opacity="0.95"/>
<stop offset="0.72" stop-color="#FEF8F6" stop-opacity="0.89"/>
<stop offset="0.77" stop-color="#FDF2EF" stop-opacity="0.81"/>
<stop offset="0.82" stop-color="#FCEAE5" stop-opacity="0.7"/>
<stop offset="0.87" stop-color="#FBE0DA" stop-opacity="0.57"/>
<stop offset="0.91" stop-color="#FAD5CC" stop-opacity="0.41"/>
<stop offset="0.96" stop-color="#F8C8BC" stop-opacity="0.22"/>
<stop offset="1" stop-color="#F6B8A9" stop-opacity="0"/>
</linearGradient>
<linearGradient id="paint6_linear_465_40998" x1="43.9704" y1="9.72871" x2="20.7914" y2="20.3932" gradientUnits="userSpaceOnUse">
<stop stop-color="white"/>
<stop offset="0.07" stop-color="#F0F5F8"/>
<stop offset="0.32" stop-color="#BDD3E1"/>
<stop offset="0.45" stop-color="#A9C6D8"/>
<stop offset="0.6" stop-color="#CCDDE8"/>
<stop offset="0.76" stop-color="#E8F0F4"/>
<stop offset="0.9" stop-color="#F9FBFC"/>
<stop offset="1" stop-color="white"/>
</linearGradient>
<linearGradient id="paint7_linear_465_40998" x1="50.187" y1="25.4938" x2="56.0695" y2="22.9316" gradientUnits="userSpaceOnUse">
<stop stop-color="white"/>
<stop offset="0.07" stop-color="#F0F5F8"/>
<stop offset="0.32" stop-color="#BDD3E1"/>
<stop offset="0.45" stop-color="#A9C6D8"/>
<stop offset="0.55" stop-color="#B2CCDC"/>
<stop offset="0.72" stop-color="#C9DBE6"/>
<stop offset="0.92" stop-color="#EEF4F7"/>
<stop offset="1" stop-color="white"/>
</linearGradient>
</defs>
</svg>
