<svg width="200" height="200" viewBox="0 0 200 200" fill="none" xmlns="http://www.w3.org/2000/svg">
<path d="M17.6965 12.3906H12.3867V17.7004H17.6965V12.3906Z" fill="white"/>
<path d="M23.009 12.3906H17.6992V17.7004H23.009V12.3906Z" fill="white"/>
<path d="M28.3175 12.3906H23.0078V17.7004H28.3175V12.3906Z" fill="white"/>
<path d="M33.6261 12.3906H28.3164V17.7004H33.6261V12.3906Z" fill="white"/>
<path d="M38.9386 12.3906H33.6289V17.7004H38.9386V12.3906Z" fill="white"/>
<path d="M44.2472 12.3906H38.9375V17.7004H44.2472V12.3906Z" fill="white"/>
<path d="M49.5558 12.3906H44.2461V17.7004H49.5558V12.3906Z" fill="white"/>
<path d="M54.8644 12.3906H49.5547V17.7004H54.8644V12.3906Z" fill="#2B2B2B"/>
<path d="M60.1769 12.3906H54.8672V17.7004H60.1769V12.3906Z" fill="white"/>
<path d="M65.4855 12.3906H60.1758V17.7004H65.4855V12.3906Z" fill="#2B2B2B"/>
<path d="M70.7941 12.3906H65.4844V17.7004H70.7941V12.3906Z" fill="white"/>
<path d="M76.1066 12.3906H70.7969V17.7004H76.1066V12.3906Z" fill="#2B2B2B"/>
<path d="M81.4152 12.3906H76.1055V17.7004H81.4152V12.3906Z" fill="white"/>
<path d="M86.7238 12.3906H81.4141V17.7004H86.7238V12.3906Z" fill="white"/>
<path d="M92.0324 12.3906H86.7227V17.7004H92.0324V12.3906Z" fill="white"/>
<path d="M97.3449 12.3906H92.0352V17.7004H97.3449V12.3906Z" fill="white"/>
<path d="M102.653 12.3906H97.3438V17.7004H102.653V12.3906Z" fill="#2B2B2B"/>
<path d="M107.966 12.3906H102.656V17.7004H107.966V12.3906Z" fill="#2B2B2B"/>
<path d="M113.275 12.3906H107.965V17.7004H113.275V12.3906Z" fill="white"/>
<path d="M118.587 12.3906H113.277V17.7004H118.587V12.3906Z" fill="white"/>
<path d="M123.896 12.3906H118.586V17.7004H123.896V12.3906Z" fill="white"/>
<path d="M129.204 12.3906H123.895V17.7004H129.204V12.3906Z" fill="#2B2B2B"/>
<path d="M134.513 12.3906H129.203V17.7004H134.513V12.3906Z" fill="#2B2B2B"/>
<path d="M139.825 12.3906H134.516V17.7004H139.825V12.3906Z" fill="white"/>
<path d="M145.134 12.3906H139.824V17.7004H145.134V12.3906Z" fill="#2B2B2B"/>
<path d="M150.443 12.3906H145.133V17.7004H150.443V12.3906Z" fill="#2B2B2B"/>
<path d="M155.755 12.3906H150.445V17.7004H155.755V12.3906Z" fill="white"/>
<path d="M161.064 12.3906H155.754V17.7004H161.064V12.3906Z" fill="white"/>
<path d="M166.372 12.3906H161.062V17.7004H166.372V12.3906Z" fill="white"/>
<path d="M171.681 12.3906H166.371V17.7004H171.681V12.3906Z" fill="white"/>
<path d="M176.993 12.3906H171.684V17.7004H176.993V12.3906Z" fill="white"/>
<path d="M182.302 12.3906H176.992V17.7004H182.302V12.3906Z" fill="white"/>
<path d="M187.611 12.3906H182.301V17.7004H187.611V12.3906Z" fill="white"/>
<path d="M17.6965 17.6992H12.3867V23.009H17.6965V17.6992Z" fill="white"/>
<path d="M23.009 17.6992H17.6992V23.009H23.009V17.6992Z" fill="#2B2B2B"/>
<path d="M28.3175 17.6992H23.0078V23.009H28.3175V17.6992Z" fill="#2B2B2B"/>
<path d="M33.6261 17.6992H28.3164V23.009H33.6261V17.6992Z" fill="#2B2B2B"/>
<path d="M38.9386 17.6992H33.6289V23.009H38.9386V17.6992Z" fill="#2B2B2B"/>
<path d="M44.2472 17.6992H38.9375V23.009H44.2472V17.6992Z" fill="#2B2B2B"/>
<path d="M49.5558 17.6992H44.2461V23.009H49.5558V17.6992Z" fill="white"/>
<path d="M54.8644 17.6992H49.5547V23.009H54.8644V17.6992Z" fill="#2B2B2B"/>
<path d="M60.1769 17.6992H54.8672V23.009H60.1769V17.6992Z" fill="#2B2B2B"/>
<path d="M65.4855 17.6992H60.1758V23.009H65.4855V17.6992Z" fill="white"/>
<path d="M70.7941 17.6992H65.4844V23.009H70.7941V17.6992Z" fill="white"/>
<path d="M76.1066 17.6992H70.7969V23.009H76.1066V17.6992Z" fill="white"/>
<path d="M81.4152 17.6992H76.1055V23.009H81.4152V17.6992Z" fill="white"/>
<path d="M86.7238 17.6992H81.4141V23.009H86.7238V17.6992Z" fill="white"/>
<path d="M92.0324 17.6992H86.7227V23.009H92.0324V17.6992Z" fill="#2B2B2B"/>
<path d="M97.3449 17.6992H92.0352V23.009H97.3449V17.6992Z" fill="#2B2B2B"/>
<path d="M102.653 17.6992H97.3438V23.009H102.653V17.6992Z" fill="white"/>
<path d="M107.966 17.6992H102.656V23.009H107.966V17.6992Z" fill="white"/>
<path d="M113.275 17.6992H107.965V23.009H113.275V17.6992Z" fill="white"/>
<path d="M118.587 17.6992H113.277V23.009H118.587V17.6992Z" fill="#2B2B2B"/>
<path d="M123.896 17.6992H118.586V23.009H123.896V17.6992Z" fill="#2B2B2B"/>
<path d="M129.204 17.6992H123.895V23.009H129.204V17.6992Z" fill="white"/>
<path d="M134.513 17.6992H129.203V23.009H134.513V17.6992Z" fill="white"/>
<path d="M139.825 17.6992H134.516V23.009H139.825V17.6992Z" fill="white"/>
<path d="M145.134 17.6992H139.824V23.009H145.134V17.6992Z" fill="white"/>
<path d="M150.443 17.6992H145.133V23.009H150.443V17.6992Z" fill="#2B2B2B"/>
<path d="M155.755 17.6992H150.445V23.009H155.755V17.6992Z" fill="white"/>
<path d="M161.064 17.6992H155.754V23.009H161.064V17.6992Z" fill="#2B2B2B"/>
<path d="M166.372 17.6992H161.062V23.009H166.372V17.6992Z" fill="#2B2B2B"/>
<path d="M171.681 17.6992H166.371V23.009H171.681V17.6992Z" fill="#2B2B2B"/>
<path d="M176.993 17.6992H171.684V23.009H176.993V17.6992Z" fill="#2B2B2B"/>
<path d="M182.302 17.6992H176.992V23.009H182.302V17.6992Z" fill="#2B2B2B"/>
<path d="M187.611 17.6992H182.301V23.009H187.611V17.6992Z" fill="white"/>
<path d="M17.6965 23.0098H12.3867V28.3195H17.6965V23.0098Z" fill="white"/>
<path d="M23.009 23.0098H17.6992V28.3195H23.009V23.0098Z" fill="#2B2B2B"/>
<path d="M28.3175 23.0098H23.0078V28.3195H28.3175V23.0098Z" fill="white"/>
<path d="M33.6261 23.0098H28.3164V28.3195H33.6261V23.0098Z" fill="white"/>
<path d="M38.9386 23.0098H33.6289V28.3195H38.9386V23.0098Z" fill="white"/>
<path d="M44.2472 23.0098H38.9375V28.3195H44.2472V23.0098Z" fill="#2B2B2B"/>
<path d="M49.5558 23.0098H44.2461V28.3195H49.5558V23.0098Z" fill="white"/>
<path d="M54.8644 23.0098H49.5547V28.3195H54.8644V23.0098Z" fill="#2B2B2B"/>
<path d="M60.1769 23.0098H54.8672V28.3195H60.1769V23.0098Z" fill="white"/>
<path d="M65.4855 23.0098H60.1758V28.3195H65.4855V23.0098Z" fill="white"/>
<path d="M70.7941 23.0098H65.4844V28.3195H70.7941V23.0098Z" fill="white"/>
<path d="M76.1066 23.0098H70.7969V28.3195H76.1066V23.0098Z" fill="#2B2B2B"/>
<path d="M81.4152 23.0098H76.1055V28.3195H81.4152V23.0098Z" fill="#2B2B2B"/>
<path d="M86.7238 23.0098H81.4141V28.3195H86.7238V23.0098Z" fill="#2B2B2B"/>
<path d="M92.0324 23.0098H86.7227V28.3195H92.0324V23.0098Z" fill="#2B2B2B"/>
<path d="M97.3449 23.0098H92.0352V28.3195H97.3449V23.0098Z" fill="#2B2B2B"/>
<path d="M102.653 23.0098H97.3438V28.3195H102.653V23.0098Z" fill="white"/>
<path d="M107.966 23.0098H102.656V28.3195H107.966V23.0098Z" fill="#2B2B2B"/>
<path d="M113.275 23.0098H107.965V28.3195H113.275V23.0098Z" fill="white"/>
<path d="M118.587 23.0098H113.277V28.3195H118.587V23.0098Z" fill="#2B2B2B"/>
<path d="M123.896 23.0098H118.586V28.3195H123.896V23.0098Z" fill="#2B2B2B"/>
<path d="M129.204 23.0098H123.895V28.3195H129.204V23.0098Z" fill="#2B2B2B"/>
<path d="M134.513 23.0098H129.203V28.3195H134.513V23.0098Z" fill="white"/>
<path d="M139.825 23.0098H134.516V28.3195H139.825V23.0098Z" fill="#2B2B2B"/>
<path d="M145.134 23.0098H139.824V28.3195H145.134V23.0098Z" fill="#2B2B2B"/>
<path d="M150.443 23.0098H145.133V28.3195H150.443V23.0098Z" fill="#2B2B2B"/>
<path d="M155.755 23.0098H150.445V28.3195H155.755V23.0098Z" fill="white"/>
<path d="M161.064 23.0098H155.754V28.3195H161.064V23.0098Z" fill="#2B2B2B"/>
<path d="M166.372 23.0098H161.062V28.3195H166.372V23.0098Z" fill="white"/>
<path d="M171.681 23.0098H166.371V28.3195H171.681V23.0098Z" fill="white"/>
<path d="M176.993 23.0098H171.684V28.3195H176.993V23.0098Z" fill="white"/>
<path d="M182.302 23.0098H176.992V28.3195H182.302V23.0098Z" fill="#2B2B2B"/>
<path d="M187.611 23.0098H182.301V28.3195H187.611V23.0098Z" fill="white"/>
<path d="M17.6965 28.3184H12.3867V33.6281H17.6965V28.3184Z" fill="white"/>
<path d="M23.009 28.3184H17.6992V33.6281H23.009V28.3184Z" fill="#2B2B2B"/>
<path d="M28.3175 28.3184H23.0078V33.6281H28.3175V28.3184Z" fill="white"/>
<path d="M33.6261 28.3184H28.3164V33.6281H33.6261V28.3184Z" fill="white"/>
<path d="M38.9386 28.3184H33.6289V33.6281H38.9386V28.3184Z" fill="white"/>
<path d="M44.2472 28.3184H38.9375V33.6281H44.2472V28.3184Z" fill="#2B2B2B"/>
<path d="M49.5558 28.3184H44.2461V33.6281H49.5558V28.3184Z" fill="white"/>
<path d="M54.8644 28.3184H49.5547V33.6281H54.8644V28.3184Z" fill="#2B2B2B"/>
<path d="M60.1769 28.3184H54.8672V33.6281H60.1769V28.3184Z" fill="white"/>
<path d="M65.4855 28.3184H60.1758V33.6281H65.4855V28.3184Z" fill="white"/>
<path d="M70.7941 28.3184H65.4844V33.6281H70.7941V28.3184Z" fill="white"/>
<path d="M76.1066 28.3184H70.7969V33.6281H76.1066V28.3184Z" fill="#2B2B2B"/>
<path d="M81.4152 28.3184H76.1055V33.6281H81.4152V28.3184Z" fill="white"/>
<path d="M86.7238 28.3184H81.4141V33.6281H86.7238V28.3184Z" fill="#2B2B2B"/>
<path d="M92.0324 28.3184H86.7227V33.6281H92.0324V28.3184Z" fill="white"/>
<path d="M97.3449 28.3184H92.0352V33.6281H97.3449V28.3184Z" fill="white"/>
<path d="M102.653 28.3184H97.3438V33.6281H102.653V28.3184Z" fill="#2B2B2B"/>
<path d="M107.966 28.3184H102.656V33.6281H107.966V28.3184Z" fill="white"/>
<path d="M113.275 28.3184H107.965V33.6281H113.275V28.3184Z" fill="#2B2B2B"/>
<path d="M118.587 28.3184H113.277V33.6281H118.587V28.3184Z" fill="white"/>
<path d="M123.896 28.3184H118.586V33.6281H123.896V28.3184Z" fill="#2B2B2B"/>
<path d="M129.204 28.3184H123.895V33.6281H129.204V28.3184Z" fill="#2B2B2B"/>
<path d="M134.513 28.3184H129.203V33.6281H134.513V28.3184Z" fill="white"/>
<path d="M139.825 28.3184H134.516V33.6281H139.825V28.3184Z" fill="white"/>
<path d="M145.134 28.3184H139.824V33.6281H145.134V28.3184Z" fill="white"/>
<path d="M150.443 28.3184H145.133V33.6281H150.443V28.3184Z" fill="#2B2B2B"/>
<path d="M155.755 28.3184H150.445V33.6281H155.755V28.3184Z" fill="white"/>
<path d="M161.064 28.3184H155.754V33.6281H161.064V28.3184Z" fill="#2B2B2B"/>
<path d="M166.372 28.3184H161.062V33.6281H166.372V28.3184Z" fill="white"/>
<path d="M171.681 28.3184H166.371V33.6281H171.681V28.3184Z" fill="white"/>
<path d="M176.993 28.3184H171.684V33.6281H176.993V28.3184Z" fill="white"/>
<path d="M182.302 28.3184H176.992V33.6281H182.302V28.3184Z" fill="#2B2B2B"/>
<path d="M187.611 28.3184H182.301V33.6281H187.611V28.3184Z" fill="white"/>
<path d="M17.6965 33.6289H12.3867V38.9386H17.6965V33.6289Z" fill="white"/>
<path d="M23.009 33.6289H17.6992V38.9386H23.009V33.6289Z" fill="#2B2B2B"/>
<path d="M28.3175 33.6289H23.0078V38.9386H28.3175V33.6289Z" fill="white"/>
<path d="M33.6261 33.6289H28.3164V38.9386H33.6261V33.6289Z" fill="white"/>
<path d="M38.9386 33.6289H33.6289V38.9386H38.9386V33.6289Z" fill="white"/>
<path d="M44.2472 33.6289H38.9375V38.9386H44.2472V33.6289Z" fill="#2B2B2B"/>
<path d="M49.5558 33.6289H44.2461V38.9386H49.5558V33.6289Z" fill="white"/>
<path d="M54.8644 33.6289H49.5547V38.9386H54.8644V33.6289Z" fill="#2B2B2B"/>
<path d="M60.1769 33.6289H54.8672V38.9386H60.1769V33.6289Z" fill="white"/>
<path d="M65.4855 33.6289H60.1758V38.9386H65.4855V33.6289Z" fill="#2B2B2B"/>
<path d="M70.7941 33.6289H65.4844V38.9386H70.7941V33.6289Z" fill="#2B2B2B"/>
<path d="M76.1066 33.6289H70.7969V38.9386H76.1066V33.6289Z" fill="white"/>
<path d="M81.4152 33.6289H76.1055V38.9386H81.4152V33.6289Z" fill="white"/>
<path d="M86.7238 33.6289H81.4141V38.9386H86.7238V33.6289Z" fill="#2B2B2B"/>
<path d="M92.0324 33.6289H86.7227V38.9386H92.0324V33.6289Z" fill="white"/>
<path d="M97.3449 33.6289H92.0352V38.9386H97.3449V33.6289Z" fill="#2B2B2B"/>
<path d="M102.653 33.6289H97.3438V38.9386H102.653V33.6289Z" fill="white"/>
<path d="M107.966 33.6289H102.656V38.9386H107.966V33.6289Z" fill="white"/>
<path d="M113.275 33.6289H107.965V38.9386H113.275V33.6289Z" fill="#2B2B2B"/>
<path d="M118.587 33.6289H113.277V38.9386H118.587V33.6289Z" fill="white"/>
<path d="M123.896 33.6289H118.586V38.9386H123.896V33.6289Z" fill="#2B2B2B"/>
<path d="M129.204 33.6289H123.895V38.9386H129.204V33.6289Z" fill="white"/>
<path d="M134.513 33.6289H129.203V38.9386H134.513V33.6289Z" fill="#2B2B2B"/>
<path d="M139.825 33.6289H134.516V38.9386H139.825V33.6289Z" fill="#2B2B2B"/>
<path d="M145.134 33.6289H139.824V38.9386H145.134V33.6289Z" fill="white"/>
<path d="M150.443 33.6289H145.133V38.9386H150.443V33.6289Z" fill="#2B2B2B"/>
<path d="M155.755 33.6289H150.445V38.9386H155.755V33.6289Z" fill="white"/>
<path d="M161.064 33.6289H155.754V38.9386H161.064V33.6289Z" fill="#2B2B2B"/>
<path d="M166.372 33.6289H161.062V38.9386H166.372V33.6289Z" fill="white"/>
<path d="M171.681 33.6289H166.371V38.9386H171.681V33.6289Z" fill="white"/>
<path d="M176.993 33.6289H171.684V38.9386H176.993V33.6289Z" fill="white"/>
<path d="M182.302 33.6289H176.992V38.9386H182.302V33.6289Z" fill="#2B2B2B"/>
<path d="M187.611 33.6289H182.301V38.9386H187.611V33.6289Z" fill="white"/>
<path d="M17.6965 38.9375H12.3867V44.2472H17.6965V38.9375Z" fill="white"/>
<path d="M23.009 38.9375H17.6992V44.2472H23.009V38.9375Z" fill="#2B2B2B"/>
<path d="M28.3175 38.9375H23.0078V44.2472H28.3175V38.9375Z" fill="#2B2B2B"/>
<path d="M33.6261 38.9375H28.3164V44.2472H33.6261V38.9375Z" fill="#2B2B2B"/>
<path d="M38.9386 38.9375H33.6289V44.2472H38.9386V38.9375Z" fill="#2B2B2B"/>
<path d="M44.2472 38.9375H38.9375V44.2472H44.2472V38.9375Z" fill="#2B2B2B"/>
<path d="M49.5558 38.9375H44.2461V44.2472H49.5558V38.9375Z" fill="white"/>
<path d="M54.8644 38.9375H49.5547V44.2472H54.8644V38.9375Z" fill="#2B2B2B"/>
<path d="M60.1769 38.9375H54.8672V44.2472H60.1769V38.9375Z" fill="#2B2B2B"/>
<path d="M65.4855 38.9375H60.1758V44.2472H65.4855V38.9375Z" fill="#2B2B2B"/>
<path d="M70.7941 38.9375H65.4844V44.2472H70.7941V38.9375Z" fill="white"/>
<path d="M76.1066 38.9375H70.7969V44.2472H76.1066V38.9375Z" fill="white"/>
<path d="M81.4152 38.9375H76.1055V44.2472H81.4152V38.9375Z" fill="#2B2B2B"/>
<path d="M86.7238 38.9375H81.4141V44.2472H86.7238V38.9375Z" fill="white"/>
<path d="M92.0324 38.9375H86.7227V44.2472H92.0324V38.9375Z" fill="#2B2B2B"/>
<path d="M97.3449 38.9375H92.0352V44.2472H97.3449V38.9375Z" fill="white"/>
<path d="M102.653 38.9375H97.3438V44.2472H102.653V38.9375Z" fill="white"/>
<path d="M107.966 38.9375H102.656V44.2472H107.966V38.9375Z" fill="#2B2B2B"/>
<path d="M113.275 38.9375H107.965V44.2472H113.275V38.9375Z" fill="#2B2B2B"/>
<path d="M118.587 38.9375H113.277V44.2472H118.587V38.9375Z" fill="white"/>
<path d="M123.896 38.9375H118.586V44.2472H123.896V38.9375Z" fill="white"/>
<path d="M129.204 38.9375H123.895V44.2472H129.204V38.9375Z" fill="white"/>
<path d="M134.513 38.9375H129.203V44.2472H134.513V38.9375Z" fill="white"/>
<path d="M139.825 38.9375H134.516V44.2472H139.825V38.9375Z" fill="#2B2B2B"/>
<path d="M145.134 38.9375H139.824V44.2472H145.134V38.9375Z" fill="#2B2B2B"/>
<path d="M150.443 38.9375H145.133V44.2472H150.443V38.9375Z" fill="#2B2B2B"/>
<path d="M155.755 38.9375H150.445V44.2472H155.755V38.9375Z" fill="white"/>
<path d="M161.064 38.9375H155.754V44.2472H161.064V38.9375Z" fill="#2B2B2B"/>
<path d="M166.372 38.9375H161.062V44.2472H166.372V38.9375Z" fill="#2B2B2B"/>
<path d="M171.681 38.9375H166.371V44.2472H171.681V38.9375Z" fill="#2B2B2B"/>
<path d="M176.993 38.9375H171.684V44.2472H176.993V38.9375Z" fill="#2B2B2B"/>
<path d="M182.302 38.9375H176.992V44.2472H182.302V38.9375Z" fill="#2B2B2B"/>
<path d="M187.611 38.9375H182.301V44.2472H187.611V38.9375Z" fill="white"/>
<path d="M17.6965 44.248H12.3867V49.5578H17.6965V44.248Z" fill="white"/>
<path d="M23.009 44.248H17.6992V49.5578H23.009V44.248Z" fill="white"/>
<path d="M28.3175 44.248H23.0078V49.5578H28.3175V44.248Z" fill="white"/>
<path d="M33.6261 44.248H28.3164V49.5578H33.6261V44.248Z" fill="white"/>
<path d="M38.9386 44.248H33.6289V49.5578H38.9386V44.248Z" fill="white"/>
<path d="M44.2472 44.248H38.9375V49.5578H44.2472V44.248Z" fill="white"/>
<path d="M49.5558 44.248H44.2461V49.5578H49.5558V44.248Z" fill="white"/>
<path d="M54.8644 44.248H49.5547V49.5578H54.8644V44.248Z" fill="#2B2B2B"/>
<path d="M60.1769 44.248H54.8672V49.5578H60.1769V44.248Z" fill="white"/>
<path d="M65.4855 44.248H60.1758V49.5578H65.4855V44.248Z" fill="#2B2B2B"/>
<path d="M70.7941 44.248H65.4844V49.5578H70.7941V44.248Z" fill="white"/>
<path d="M76.1066 44.248H70.7969V49.5578H76.1066V44.248Z" fill="#2B2B2B"/>
<path d="M81.4152 44.248H76.1055V49.5578H81.4152V44.248Z" fill="white"/>
<path d="M86.7238 44.248H81.4141V49.5578H86.7238V44.248Z" fill="#2B2B2B"/>
<path d="M92.0324 44.248H86.7227V49.5578H92.0324V44.248Z" fill="white"/>
<path d="M97.3449 44.248H92.0352V49.5578H97.3449V44.248Z" fill="#2B2B2B"/>
<path d="M102.653 44.248H97.3438V49.5578H102.653V44.248Z" fill="white"/>
<path d="M107.966 44.248H102.656V49.5578H107.966V44.248Z" fill="#2B2B2B"/>
<path d="M113.275 44.248H107.965V49.5578H113.275V44.248Z" fill="white"/>
<path d="M118.587 44.248H113.277V49.5578H118.587V44.248Z" fill="#2B2B2B"/>
<path d="M123.896 44.248H118.586V49.5578H123.896V44.248Z" fill="white"/>
<path d="M129.204 44.248H123.895V49.5578H129.204V44.248Z" fill="#2B2B2B"/>
<path d="M134.513 44.248H129.203V49.5578H134.513V44.248Z" fill="white"/>
<path d="M139.825 44.248H134.516V49.5578H139.825V44.248Z" fill="#2B2B2B"/>
<path d="M145.134 44.248H139.824V49.5578H145.134V44.248Z" fill="white"/>
<path d="M150.443 44.248H145.133V49.5578H150.443V44.248Z" fill="#2B2B2B"/>
<path d="M155.755 44.248H150.445V49.5578H155.755V44.248Z" fill="white"/>
<path d="M161.064 44.248H155.754V49.5578H161.064V44.248Z" fill="white"/>
<path d="M166.372 44.248H161.062V49.5578H166.372V44.248Z" fill="white"/>
<path d="M171.681 44.248H166.371V49.5578H171.681V44.248Z" fill="white"/>
<path d="M176.993 44.248H171.684V49.5578H176.993V44.248Z" fill="white"/>
<path d="M182.302 44.248H176.992V49.5578H182.302V44.248Z" fill="white"/>
<path d="M187.611 44.248H182.301V49.5578H187.611V44.248Z" fill="white"/>
<path d="M17.6965 49.5586H12.3867V54.8683H17.6965V49.5586Z" fill="#2B2B2B"/>
<path d="M23.009 49.5586H17.6992V54.8683H23.009V49.5586Z" fill="#2B2B2B"/>
<path d="M28.3175 49.5586H23.0078V54.8683H28.3175V49.5586Z" fill="#2B2B2B"/>
<path d="M33.6261 49.5586H28.3164V54.8683H33.6261V49.5586Z" fill="#2B2B2B"/>
<path d="M38.9386 49.5586H33.6289V54.8683H38.9386V49.5586Z" fill="#2B2B2B"/>
<path d="M44.2472 49.5586H38.9375V54.8683H44.2472V49.5586Z" fill="#2B2B2B"/>
<path d="M49.5558 49.5586H44.2461V54.8683H49.5558V49.5586Z" fill="#2B2B2B"/>
<path d="M54.8644 49.5586H49.5547V54.8683H54.8644V49.5586Z" fill="#2B2B2B"/>
<path d="M60.1769 49.5586H54.8672V54.8683H60.1769V49.5586Z" fill="#2B2B2B"/>
<path d="M65.4855 49.5586H60.1758V54.8683H65.4855V49.5586Z" fill="#2B2B2B"/>
<path d="M70.7941 49.5586H65.4844V54.8683H70.7941V49.5586Z" fill="white"/>
<path d="M76.1066 49.5586H70.7969V54.8683H76.1066V49.5586Z" fill="#2B2B2B"/>
<path d="M81.4152 49.5586H76.1055V54.8683H81.4152V49.5586Z" fill="white"/>
<path d="M86.7238 49.5586H81.4141V54.8683H86.7238V49.5586Z" fill="#2B2B2B"/>
<path d="M92.0324 49.5586H86.7227V54.8683H92.0324V49.5586Z" fill="#2B2B2B"/>
<path d="M97.3449 49.5586H92.0352V54.8683H97.3449V49.5586Z" fill="white"/>
<path d="M102.653 49.5586H97.3438V54.8683H102.653V49.5586Z" fill="white"/>
<path d="M107.966 49.5586H102.656V54.8683H107.966V49.5586Z" fill="white"/>
<path d="M113.275 49.5586H107.965V54.8683H113.275V49.5586Z" fill="white"/>
<path d="M118.587 49.5586H113.277V54.8683H118.587V49.5586Z" fill="white"/>
<path d="M123.896 49.5586H118.586V54.8683H123.896V49.5586Z" fill="white"/>
<path d="M129.204 49.5586H123.895V54.8683H129.204V49.5586Z" fill="#2B2B2B"/>
<path d="M134.513 49.5586H129.203V54.8683H134.513V49.5586Z" fill="white"/>
<path d="M139.825 49.5586H134.516V54.8683H139.825V49.5586Z" fill="white"/>
<path d="M145.134 49.5586H139.824V54.8683H145.134V49.5586Z" fill="white"/>
<path d="M150.443 49.5586H145.133V54.8683H150.443V49.5586Z" fill="#2B2B2B"/>
<path d="M155.755 49.5586H150.445V54.8683H155.755V49.5586Z" fill="#2B2B2B"/>
<path d="M161.064 49.5586H155.754V54.8683H161.064V49.5586Z" fill="#2B2B2B"/>
<path d="M166.372 49.5586H161.062V54.8683H166.372V49.5586Z" fill="#2B2B2B"/>
<path d="M171.681 49.5586H166.371V54.8683H171.681V49.5586Z" fill="#2B2B2B"/>
<path d="M176.993 49.5586H171.684V54.8683H176.993V49.5586Z" fill="#2B2B2B"/>
<path d="M182.302 49.5586H176.992V54.8683H182.302V49.5586Z" fill="#2B2B2B"/>
<path d="M187.611 49.5586H182.301V54.8683H187.611V49.5586Z" fill="#2B2B2B"/>
<path d="M17.6965 54.8672H12.3867V60.1769H17.6965V54.8672Z" fill="white"/>
<path d="M23.009 54.8672H17.6992V60.1769H23.009V54.8672Z" fill="white"/>
<path d="M28.3175 54.8672H23.0078V60.1769H28.3175V54.8672Z" fill="white"/>
<path d="M33.6261 54.8672H28.3164V60.1769H33.6261V54.8672Z" fill="white"/>
<path d="M38.9386 54.8672H33.6289V60.1769H38.9386V54.8672Z" fill="#2B2B2B"/>
<path d="M44.2472 54.8672H38.9375V60.1769H44.2472V54.8672Z" fill="#2B2B2B"/>
<path d="M49.5558 54.8672H44.2461V60.1769H49.5558V54.8672Z" fill="white"/>
<path d="M54.8644 54.8672H49.5547V60.1769H54.8644V54.8672Z" fill="#2B2B2B"/>
<path d="M60.1769 54.8672H54.8672V60.1769H60.1769V54.8672Z" fill="white"/>
<path d="M65.4855 54.8672H60.1758V60.1769H65.4855V54.8672Z" fill="#2B2B2B"/>
<path d="M70.7941 54.8672H65.4844V60.1769H70.7941V54.8672Z" fill="white"/>
<path d="M76.1066 54.8672H70.7969V60.1769H76.1066V54.8672Z" fill="white"/>
<path d="M81.4152 54.8672H76.1055V60.1769H81.4152V54.8672Z" fill="white"/>
<path d="M86.7238 54.8672H81.4141V60.1769H86.7238V54.8672Z" fill="white"/>
<path d="M92.0324 54.8672H86.7227V60.1769H92.0324V54.8672Z" fill="#2B2B2B"/>
<path d="M97.3449 54.8672H92.0352V60.1769H97.3449V54.8672Z" fill="white"/>
<path d="M102.653 54.8672H97.3438V60.1769H102.653V54.8672Z" fill="white"/>
<path d="M107.966 54.8672H102.656V60.1769H107.966V54.8672Z" fill="white"/>
<path d="M113.275 54.8672H107.965V60.1769H113.275V54.8672Z" fill="white"/>
<path d="M118.587 54.8672H113.277V60.1769H118.587V54.8672Z" fill="white"/>
<path d="M123.896 54.8672H118.586V60.1769H123.896V54.8672Z" fill="#2B2B2B"/>
<path d="M129.204 54.8672H123.895V60.1769H129.204V54.8672Z" fill="white"/>
<path d="M134.513 54.8672H129.203V60.1769H134.513V54.8672Z" fill="white"/>
<path d="M139.825 54.8672H134.516V60.1769H139.825V54.8672Z" fill="white"/>
<path d="M145.134 54.8672H139.824V60.1769H145.134V54.8672Z" fill="#2B2B2B"/>
<path d="M150.443 54.8672H145.133V60.1769H150.443V54.8672Z" fill="white"/>
<path d="M155.755 54.8672H150.445V60.1769H155.755V54.8672Z" fill="#2B2B2B"/>
<path d="M161.064 54.8672H155.754V60.1769H161.064V54.8672Z" fill="#2B2B2B"/>
<path d="M166.372 54.8672H161.062V60.1769H166.372V54.8672Z" fill="white"/>
<path d="M171.681 54.8672H166.371V60.1769H171.681V54.8672Z" fill="white"/>
<path d="M176.993 54.8672H171.684V60.1769H176.993V54.8672Z" fill="white"/>
<path d="M182.302 54.8672H176.992V60.1769H182.302V54.8672Z" fill="#2B2B2B"/>
<path d="M187.611 54.8672H182.301V60.1769H187.611V54.8672Z" fill="white"/>
<path d="M17.6965 60.1777H12.3867V65.4875H17.6965V60.1777Z" fill="white"/>
<path d="M23.009 60.1777H17.6992V65.4875H23.009V60.1777Z" fill="#2B2B2B"/>
<path d="M28.3175 60.1777H23.0078V65.4875H28.3175V60.1777Z" fill="white"/>
<path d="M33.6261 60.1777H28.3164V65.4875H33.6261V60.1777Z" fill="#2B2B2B"/>
<path d="M38.9386 60.1777H33.6289V65.4875H38.9386V60.1777Z" fill="#2B2B2B"/>
<path d="M44.2472 60.1777H38.9375V65.4875H44.2472V60.1777Z" fill="white"/>
<path d="M49.5558 60.1777H44.2461V65.4875H49.5558V60.1777Z" fill="#2B2B2B"/>
<path d="M54.8644 60.1777H49.5547V65.4875H54.8644V60.1777Z" fill="#2B2B2B"/>
<path d="M60.1769 60.1777H54.8672V65.4875H60.1769V60.1777Z" fill="#2B2B2B"/>
<path d="M65.4855 60.1777H60.1758V65.4875H65.4855V60.1777Z" fill="#2B2B2B"/>
<path d="M70.7941 60.1777H65.4844V65.4875H70.7941V60.1777Z" fill="white"/>
<path d="M76.1066 60.1777H70.7969V65.4875H76.1066V60.1777Z" fill="#2B2B2B"/>
<path d="M81.4152 60.1777H76.1055V65.4875H81.4152V60.1777Z" fill="white"/>
<path d="M86.7238 60.1777H81.4141V65.4875H86.7238V60.1777Z" fill="white"/>
<path d="M92.0324 60.1777H86.7227V65.4875H92.0324V60.1777Z" fill="white"/>
<path d="M97.3449 60.1777H92.0352V65.4875H97.3449V60.1777Z" fill="white"/>
<path d="M102.653 60.1777H97.3438V65.4875H102.653V60.1777Z" fill="#2B2B2B"/>
<path d="M107.966 60.1777H102.656V65.4875H107.966V60.1777Z" fill="white"/>
<path d="M113.275 60.1777H107.965V65.4875H113.275V60.1777Z" fill="#2B2B2B"/>
<path d="M118.587 60.1777H113.277V65.4875H118.587V60.1777Z" fill="white"/>
<path d="M123.896 60.1777H118.586V65.4875H123.896V60.1777Z" fill="white"/>
<path d="M129.204 60.1777H123.895V65.4875H129.204V60.1777Z" fill="#2B2B2B"/>
<path d="M134.513 60.1777H129.203V65.4875H134.513V60.1777Z" fill="#2B2B2B"/>
<path d="M139.825 60.1777H134.516V65.4875H139.825V60.1777Z" fill="white"/>
<path d="M145.134 60.1777H139.824V65.4875H145.134V60.1777Z" fill="#2B2B2B"/>
<path d="M150.443 60.1777H145.133V65.4875H150.443V60.1777Z" fill="#2B2B2B"/>
<path d="M155.755 60.1777H150.445V65.4875H155.755V60.1777Z" fill="white"/>
<path d="M161.064 60.1777H155.754V65.4875H161.064V60.1777Z" fill="#2B2B2B"/>
<path d="M166.372 60.1777H161.062V65.4875H166.372V60.1777Z" fill="#2B2B2B"/>
<path d="M171.681 60.1777H166.371V65.4875H171.681V60.1777Z" fill="#2B2B2B"/>
<path d="M176.993 60.1777H171.684V65.4875H176.993V60.1777Z" fill="white"/>
<path d="M182.302 60.1777H176.992V65.4875H182.302V60.1777Z" fill="white"/>
<path d="M187.611 60.1777H182.301V65.4875H187.611V60.1777Z" fill="white"/>
<path d="M17.6965 65.4863H12.3867V70.7961H17.6965V65.4863Z" fill="white"/>
<path d="M23.009 65.4863H17.6992V70.7961H23.009V65.4863Z" fill="white"/>
<path d="M28.3175 65.4863H23.0078V70.7961H28.3175V65.4863Z" fill="#2B2B2B"/>
<path d="M33.6261 65.4863H28.3164V70.7961H33.6261V65.4863Z" fill="white"/>
<path d="M38.9386 65.4863H33.6289V70.7961H38.9386V65.4863Z" fill="white"/>
<path d="M44.2472 65.4863H38.9375V70.7961H44.2472V65.4863Z" fill="white"/>
<path d="M49.5558 65.4863H44.2461V70.7961H49.5558V65.4863Z" fill="white"/>
<path d="M54.8644 65.4863H49.5547V70.7961H54.8644V65.4863Z" fill="#2B2B2B"/>
<path d="M60.1769 65.4863H54.8672V70.7961H60.1769V65.4863Z" fill="#2B2B2B"/>
<path d="M65.4855 65.4863H60.1758V70.7961H65.4855V65.4863Z" fill="white"/>
<path d="M70.7941 65.4863H65.4844V70.7961H70.7941V65.4863Z" fill="white"/>
<path d="M76.1066 65.4863H70.7969V70.7961H76.1066V65.4863Z" fill="white"/>
<path d="M81.4152 65.4863H76.1055V70.7961H81.4152V65.4863Z" fill="white"/>
<path d="M86.7238 65.4863H81.4141V70.7961H86.7238V65.4863Z" fill="white"/>
<path d="M92.0324 65.4863H86.7227V70.7961H92.0324V65.4863Z" fill="#2B2B2B"/>
<path d="M97.3449 65.4863H92.0352V70.7961H97.3449V65.4863Z" fill="#2B2B2B"/>
<path d="M102.653 65.4863H97.3438V70.7961H102.653V65.4863Z" fill="white"/>
<path d="M107.966 65.4863H102.656V70.7961H107.966V65.4863Z" fill="white"/>
<path d="M113.275 65.4863H107.965V70.7961H113.275V65.4863Z" fill="#2B2B2B"/>
<path d="M118.587 65.4863H113.277V70.7961H118.587V65.4863Z" fill="#2B2B2B"/>
<path d="M123.896 65.4863H118.586V70.7961H123.896V65.4863Z" fill="#2B2B2B"/>
<path d="M129.204 65.4863H123.895V70.7961H129.204V65.4863Z" fill="white"/>
<path d="M134.513 65.4863H129.203V70.7961H134.513V65.4863Z" fill="white"/>
<path d="M139.825 65.4863H134.516V70.7961H139.825V65.4863Z" fill="white"/>
<path d="M145.134 65.4863H139.824V70.7961H145.134V65.4863Z" fill="white"/>
<path d="M150.443 65.4863H145.133V70.7961H150.443V65.4863Z" fill="#2B2B2B"/>
<path d="M155.755 65.4863H150.445V70.7961H155.755V65.4863Z" fill="#2B2B2B"/>
<path d="M161.064 65.4863H155.754V70.7961H161.064V65.4863Z" fill="white"/>
<path d="M166.372 65.4863H161.062V70.7961H166.372V65.4863Z" fill="white"/>
<path d="M171.681 65.4863H166.371V70.7961H171.681V65.4863Z" fill="#2B2B2B"/>
<path d="M176.993 65.4863H171.684V70.7961H176.993V65.4863Z" fill="white"/>
<path d="M182.302 65.4863H176.992V70.7961H182.302V65.4863Z" fill="white"/>
<path d="M187.611 65.4863H182.301V70.7961H187.611V65.4863Z" fill="white"/>
<path d="M17.6965 70.7969H12.3867V76.1066H17.6965V70.7969Z" fill="white"/>
<path d="M23.009 70.7969H17.6992V76.1066H23.009V70.7969Z" fill="#2B2B2B"/>
<path d="M28.3175 70.7969H23.0078V76.1066H28.3175V70.7969Z" fill="white"/>
<path d="M33.6261 70.7969H28.3164V76.1066H33.6261V70.7969Z" fill="white"/>
<path d="M38.9386 70.7969H33.6289V76.1066H38.9386V70.7969Z" fill="#2B2B2B"/>
<path d="M44.2472 70.7969H38.9375V76.1066H44.2472V70.7969Z" fill="#2B2B2B"/>
<path d="M49.5558 70.7969H44.2461V76.1066H49.5558V70.7969Z" fill="#2B2B2B"/>
<path d="M54.8644 70.7969H49.5547V76.1066H54.8644V70.7969Z" fill="#2B2B2B"/>
<path d="M60.1769 70.7969H54.8672V76.1066H60.1769V70.7969Z" fill="#2B2B2B"/>
<path d="M65.4855 70.7969H60.1758V76.1066H65.4855V70.7969Z" fill="white"/>
<path d="M70.7941 70.7969H65.4844V76.1066H70.7941V70.7969Z" fill="white"/>
<path d="M76.1066 70.7969H70.7969V76.1066H76.1066V70.7969Z" fill="#2B2B2B"/>
<path d="M81.4152 70.7969H76.1055V76.1066H81.4152V70.7969Z" fill="#2B2B2B"/>
<path d="M86.7238 70.7969H81.4141V76.1066H86.7238V70.7969Z" fill="#2B2B2B"/>
<path d="M92.0324 70.7969H86.7227V76.1066H92.0324V70.7969Z" fill="#2B2B2B"/>
<path d="M97.3449 70.7969H92.0352V76.1066H97.3449V70.7969Z" fill="#2B2B2B"/>
<path d="M102.653 70.7969H97.3438V76.1066H102.653V70.7969Z" fill="#2B2B2B"/>
<path d="M107.966 70.7969H102.656V76.1066H107.966V70.7969Z" fill="#2B2B2B"/>
<path d="M113.275 70.7969H107.965V76.1066H113.275V70.7969Z" fill="white"/>
<path d="M118.587 70.7969H113.277V76.1066H118.587V70.7969Z" fill="#2B2B2B"/>
<path d="M123.896 70.7969H118.586V76.1066H123.896V70.7969Z" fill="white"/>
<path d="M129.204 70.7969H123.895V76.1066H129.204V70.7969Z" fill="#2B2B2B"/>
<path d="M134.513 70.7969H129.203V76.1066H134.513V70.7969Z" fill="white"/>
<path d="M139.825 70.7969H134.516V76.1066H139.825V70.7969Z" fill="#2B2B2B"/>
<path d="M145.134 70.7969H139.824V76.1066H145.134V70.7969Z" fill="white"/>
<path d="M150.443 70.7969H145.133V76.1066H150.443V70.7969Z" fill="#2B2B2B"/>
<path d="M155.755 70.7969H150.445V76.1066H155.755V70.7969Z" fill="#2B2B2B"/>
<path d="M161.064 70.7969H155.754V76.1066H161.064V70.7969Z" fill="#2B2B2B"/>
<path d="M166.372 70.7969H161.062V76.1066H166.372V70.7969Z" fill="#2B2B2B"/>
<path d="M171.681 70.7969H166.371V76.1066H171.681V70.7969Z" fill="#2B2B2B"/>
<path d="M176.993 70.7969H171.684V76.1066H176.993V70.7969Z" fill="#2B2B2B"/>
<path d="M182.302 70.7969H176.992V76.1066H182.302V70.7969Z" fill="white"/>
<path d="M187.611 70.7969H182.301V76.1066H187.611V70.7969Z" fill="#2B2B2B"/>
<path d="M17.6965 76.1055H12.3867V81.4152H17.6965V76.1055Z" fill="#2B2B2B"/>
<path d="M23.009 76.1055H17.6992V81.4152H23.009V76.1055Z" fill="#2B2B2B"/>
<path d="M28.3175 76.1055H23.0078V81.4152H28.3175V76.1055Z" fill="white"/>
<path d="M33.6261 76.1055H28.3164V81.4152H33.6261V76.1055Z" fill="white"/>
<path d="M38.9386 76.1055H33.6289V81.4152H38.9386V76.1055Z" fill="#2B2B2B"/>
<path d="M44.2472 76.1055H38.9375V81.4152H44.2472V76.1055Z" fill="white"/>
<path d="M49.5558 76.1055H44.2461V81.4152H49.5558V76.1055Z" fill="white"/>
<path d="M54.8644 76.1055H49.5547V81.4152H54.8644V76.1055Z" fill="#2B2B2B"/>
<path d="M60.1769 76.1055H54.8672V81.4152H60.1769V76.1055Z" fill="#2B2B2B"/>
<path d="M65.4855 76.1055H60.1758V81.4152H65.4855V76.1055Z" fill="white"/>
<path d="M70.7941 76.1055H65.4844V81.4152H70.7941V76.1055Z" fill="white"/>
<path d="M76.1066 76.1055H70.7969V81.4152H76.1066V76.1055Z" fill="#2B2B2B"/>
<path d="M81.4152 76.1055H76.1055V81.4152H81.4152V76.1055Z" fill="white"/>
<path d="M86.7238 76.1055H81.4141V81.4152H86.7238V76.1055Z" fill="#2B2B2B"/>
<path d="M92.0324 76.1055H86.7227V81.4152H92.0324V76.1055Z" fill="white"/>
<path d="M97.3449 76.1055H92.0352V81.4152H97.3449V76.1055Z" fill="white"/>
<path d="M102.653 76.1055H97.3438V81.4152H102.653V76.1055Z" fill="#2B2B2B"/>
<path d="M107.966 76.1055H102.656V81.4152H107.966V76.1055Z" fill="white"/>
<path d="M113.275 76.1055H107.965V81.4152H113.275V76.1055Z" fill="white"/>
<path d="M118.587 76.1055H113.277V81.4152H118.587V76.1055Z" fill="#2B2B2B"/>
<path d="M123.896 76.1055H118.586V81.4152H123.896V76.1055Z" fill="#2B2B2B"/>
<path d="M129.204 76.1055H123.895V81.4152H129.204V76.1055Z" fill="#2B2B2B"/>
<path d="M134.513 76.1055H129.203V81.4152H134.513V76.1055Z" fill="white"/>
<path d="M139.825 76.1055H134.516V81.4152H139.825V76.1055Z" fill="#2B2B2B"/>
<path d="M145.134 76.1055H139.824V81.4152H145.134V76.1055Z" fill="white"/>
<path d="M150.443 76.1055H145.133V81.4152H150.443V76.1055Z" fill="white"/>
<path d="M155.755 76.1055H150.445V81.4152H155.755V76.1055Z" fill="#2B2B2B"/>
<path d="M161.064 76.1055H155.754V81.4152H161.064V76.1055Z" fill="white"/>
<path d="M166.372 76.1055H161.062V81.4152H166.372V76.1055Z" fill="white"/>
<path d="M171.681 76.1055H166.371V81.4152H171.681V76.1055Z" fill="white"/>
<path d="M176.993 76.1055H171.684V81.4152H176.993V76.1055Z" fill="#2B2B2B"/>
<path d="M182.302 76.1055H176.992V81.4152H182.302V76.1055Z" fill="#2B2B2B"/>
<path d="M187.611 76.1055H182.301V81.4152H187.611V76.1055Z" fill="#2B2B2B"/>
<path d="M17.6965 81.416H12.3867V86.7258H17.6965V81.416Z" fill="#2B2B2B"/>
<path d="M23.009 81.416H17.6992V86.7258H23.009V81.416Z" fill="white"/>
<path d="M28.3175 81.416H23.0078V86.7258H28.3175V81.416Z" fill="white"/>
<path d="M33.6261 81.416H28.3164V86.7258H33.6261V81.416Z" fill="#2B2B2B"/>
<path d="M38.9386 81.416H33.6289V86.7258H38.9386V81.416Z" fill="white"/>
<path d="M44.2472 81.416H38.9375V86.7258H44.2472V81.416Z" fill="white"/>
<path d="M49.5558 81.416H44.2461V86.7258H49.5558V81.416Z" fill="#2B2B2B"/>
<path d="M54.8644 81.416H49.5547V86.7258H54.8644V81.416Z" fill="#2B2B2B"/>
<path d="M60.1769 81.416H54.8672V86.7258H60.1769V81.416Z" fill="white"/>
<path d="M65.4855 81.416H60.1758V86.7258H65.4855V81.416Z" fill="white"/>
<path d="M70.7941 81.416H65.4844V86.7258H70.7941V81.416Z" fill="#2B2B2B"/>
<path d="M76.1066 81.416H70.7969V86.7258H76.1066V81.416Z" fill="white"/>
<path d="M81.4152 81.416H76.1055V86.7258H81.4152V81.416Z" fill="white"/>
<path d="M86.7238 81.416H81.4141V86.7258H86.7238V81.416Z" fill="#2B2B2B"/>
<path d="M92.0324 81.416H86.7227V86.7258H92.0324V81.416Z" fill="white"/>
<path d="M97.3449 81.416H92.0352V86.7258H97.3449V81.416Z" fill="white"/>
<path d="M102.653 81.416H97.3438V86.7258H102.653V81.416Z" fill="white"/>
<path d="M107.966 81.416H102.656V86.7258H107.966V81.416Z" fill="#2B2B2B"/>
<path d="M113.275 81.416H107.965V86.7258H113.275V81.416Z" fill="white"/>
<path d="M118.587 81.416H113.277V86.7258H118.587V81.416Z" fill="white"/>
<path d="M123.896 81.416H118.586V86.7258H123.896V81.416Z" fill="#2B2B2B"/>
<path d="M129.204 81.416H123.895V86.7258H129.204V81.416Z" fill="white"/>
<path d="M134.513 81.416H129.203V86.7258H134.513V81.416Z" fill="#2B2B2B"/>
<path d="M139.825 81.416H134.516V86.7258H139.825V81.416Z" fill="#2B2B2B"/>
<path d="M145.134 81.416H139.824V86.7258H145.134V81.416Z" fill="white"/>
<path d="M150.443 81.416H145.133V86.7258H150.443V81.416Z" fill="white"/>
<path d="M155.755 81.416H150.445V86.7258H155.755V81.416Z" fill="#2B2B2B"/>
<path d="M161.064 81.416H155.754V86.7258H161.064V81.416Z" fill="white"/>
<path d="M166.372 81.416H161.062V86.7258H166.372V81.416Z" fill="#2B2B2B"/>
<path d="M171.681 81.416H166.371V86.7258H171.681V81.416Z" fill="white"/>
<path d="M176.993 81.416H171.684V86.7258H176.993V81.416Z" fill="white"/>
<path d="M182.302 81.416H176.992V86.7258H182.302V81.416Z" fill="white"/>
<path d="M187.611 81.416H182.301V86.7258H187.611V81.416Z" fill="#2B2B2B"/>
<path d="M17.6965 86.7266H12.3867V92.0363H17.6965V86.7266Z" fill="white"/>
<path d="M23.009 86.7266H17.6992V92.0363H23.009V86.7266Z" fill="white"/>
<path d="M28.3175 86.7266H23.0078V92.0363H28.3175V86.7266Z" fill="#2B2B2B"/>
<path d="M33.6261 86.7266H28.3164V92.0363H33.6261V86.7266Z" fill="#2B2B2B"/>
<path d="M38.9386 86.7266H33.6289V92.0363H38.9386V86.7266Z" fill="white"/>
<path d="M44.2472 86.7266H38.9375V92.0363H44.2472V86.7266Z" fill="#2B2B2B"/>
<path d="M49.5558 86.7266H44.2461V92.0363H49.5558V86.7266Z" fill="white"/>
<path d="M54.8644 86.7266H49.5547V92.0363H54.8644V86.7266Z" fill="#2B2B2B"/>
<path d="M60.1769 86.7266H54.8672V92.0363H60.1769V86.7266Z" fill="#2B2B2B"/>
<path d="M65.4855 86.7266H60.1758V92.0363H65.4855V86.7266Z" fill="white"/>
<path d="M70.7941 86.7266H65.4844V92.0363H70.7941V86.7266Z" fill="white"/>
<path d="M76.1066 86.7266H70.7969V92.0363H76.1066V86.7266Z" fill="white"/>
<path d="M81.4152 86.7266H76.1055V92.0363H81.4152V86.7266Z" fill="#2B2B2B"/>
<path d="M86.7238 86.7266H81.4141V92.0363H86.7238V86.7266Z" fill="white"/>
<path d="M92.0324 86.7266H86.7227V92.0363H92.0324V86.7266Z" fill="#2B2B2B"/>
<path d="M97.3449 86.7266H92.0352V92.0363H97.3449V86.7266Z" fill="#2B2B2B"/>
<path d="M102.653 86.7266H97.3438V92.0363H102.653V86.7266Z" fill="#2B2B2B"/>
<path d="M107.966 86.7266H102.656V92.0363H107.966V86.7266Z" fill="white"/>
<path d="M113.275 86.7266H107.965V92.0363H113.275V86.7266Z" fill="white"/>
<path d="M118.587 86.7266H113.277V92.0363H118.587V86.7266Z" fill="white"/>
<path d="M123.896 86.7266H118.586V92.0363H123.896V86.7266Z" fill="#2B2B2B"/>
<path d="M129.204 86.7266H123.895V92.0363H129.204V86.7266Z" fill="#2B2B2B"/>
<path d="M134.513 86.7266H129.203V92.0363H134.513V86.7266Z" fill="#2B2B2B"/>
<path d="M139.825 86.7266H134.516V92.0363H139.825V86.7266Z" fill="#2B2B2B"/>
<path d="M145.134 86.7266H139.824V92.0363H145.134V86.7266Z" fill="#2B2B2B"/>
<path d="M150.443 86.7266H145.133V92.0363H150.443V86.7266Z" fill="#2B2B2B"/>
<path d="M155.755 86.7266H150.445V92.0363H155.755V86.7266Z" fill="#2B2B2B"/>
<path d="M161.064 86.7266H155.754V92.0363H161.064V86.7266Z" fill="#2B2B2B"/>
<path d="M166.372 86.7266H161.062V92.0363H166.372V86.7266Z" fill="white"/>
<path d="M171.681 86.7266H166.371V92.0363H171.681V86.7266Z" fill="#2B2B2B"/>
<path d="M176.993 86.7266H171.684V92.0363H176.993V86.7266Z" fill="white"/>
<path d="M182.302 86.7266H176.992V92.0363H182.302V86.7266Z" fill="#2B2B2B"/>
<path d="M187.611 86.7266H182.301V92.0363H187.611V86.7266Z" fill="#2B2B2B"/>
<path d="M17.6965 92.0352H12.3867V97.3449H17.6965V92.0352Z" fill="white"/>
<path d="M23.009 92.0352H17.6992V97.3449H23.009V92.0352Z" fill="#2B2B2B"/>
<path d="M28.3175 92.0352H23.0078V97.3449H28.3175V92.0352Z" fill="#2B2B2B"/>
<path d="M33.6261 92.0352H28.3164V97.3449H33.6261V92.0352Z" fill="white"/>
<path d="M38.9386 92.0352H33.6289V97.3449H38.9386V92.0352Z" fill="#2B2B2B"/>
<path d="M44.2472 92.0352H38.9375V97.3449H44.2472V92.0352Z" fill="#2B2B2B"/>
<path d="M49.5558 92.0352H44.2461V97.3449H49.5558V92.0352Z" fill="#2B2B2B"/>
<path d="M54.8644 92.0352H49.5547V97.3449H54.8644V92.0352Z" fill="#2B2B2B"/>
<path d="M60.1769 92.0352H54.8672V97.3449H60.1769V92.0352Z" fill="white"/>
<path d="M65.4855 92.0352H60.1758V97.3449H65.4855V92.0352Z" fill="#2B2B2B"/>
<path d="M70.7941 92.0352H65.4844V97.3449H70.7941V92.0352Z" fill="white"/>
<path d="M76.1066 92.0352H70.7969V97.3449H76.1066V92.0352Z" fill="white"/>
<path d="M81.4152 92.0352H76.1055V97.3449H81.4152V92.0352Z" fill="#2B2B2B"/>
<path d="M86.7238 92.0352H81.4141V97.3449H86.7238V92.0352Z" fill="#2B2B2B"/>
<path d="M92.0324 92.0352H86.7227V97.3449H92.0324V92.0352Z" fill="white"/>
<path d="M97.3449 92.0352H92.0352V97.3449H97.3449V92.0352Z" fill="white"/>
<path d="M102.653 92.0352H97.3438V97.3449H102.653V92.0352Z" fill="white"/>
<path d="M107.966 92.0352H102.656V97.3449H107.966V92.0352Z" fill="#2B2B2B"/>
<path d="M113.275 92.0352H107.965V97.3449H113.275V92.0352Z" fill="#2B2B2B"/>
<path d="M118.587 92.0352H113.277V97.3449H118.587V92.0352Z" fill="#2B2B2B"/>
<path d="M123.896 92.0352H118.586V97.3449H123.896V92.0352Z" fill="#2B2B2B"/>
<path d="M129.204 92.0352H123.895V97.3449H129.204V92.0352Z" fill="white"/>
<path d="M134.513 92.0352H129.203V97.3449H134.513V92.0352Z" fill="white"/>
<path d="M139.825 92.0352H134.516V97.3449H139.825V92.0352Z" fill="white"/>
<path d="M145.134 92.0352H139.824V97.3449H145.134V92.0352Z" fill="#2B2B2B"/>
<path d="M150.443 92.0352H145.133V97.3449H150.443V92.0352Z" fill="#2B2B2B"/>
<path d="M155.755 92.0352H150.445V97.3449H155.755V92.0352Z" fill="#2B2B2B"/>
<path d="M161.064 92.0352H155.754V97.3449H161.064V92.0352Z" fill="#2B2B2B"/>
<path d="M166.372 92.0352H161.062V97.3449H166.372V92.0352Z" fill="#2B2B2B"/>
<path d="M171.681 92.0352H166.371V97.3449H171.681V92.0352Z" fill="#2B2B2B"/>
<path d="M176.993 92.0352H171.684V97.3449H176.993V92.0352Z" fill="white"/>
<path d="M182.302 92.0352H176.992V97.3449H182.302V92.0352Z" fill="#2B2B2B"/>
<path d="M187.611 92.0352H182.301V97.3449H187.611V92.0352Z" fill="#2B2B2B"/>
<path d="M17.6965 97.3457H12.3867V102.655H17.6965V97.3457Z" fill="white"/>
<path d="M23.009 97.3457H17.6992V102.655H23.009V97.3457Z" fill="white"/>
<path d="M28.3175 97.3457H23.0078V102.655H28.3175V97.3457Z" fill="white"/>
<path d="M33.6261 97.3457H28.3164V102.655H33.6261V97.3457Z" fill="#2B2B2B"/>
<path d="M38.9386 97.3457H33.6289V102.655H38.9386V97.3457Z" fill="white"/>
<path d="M44.2472 97.3457H38.9375V102.655H44.2472V97.3457Z" fill="white"/>
<path d="M49.5558 97.3457H44.2461V102.655H49.5558V97.3457Z" fill="white"/>
<path d="M54.8644 97.3457H49.5547V102.655H54.8644V97.3457Z" fill="white"/>
<path d="M60.1769 97.3457H54.8672V102.655H60.1769V97.3457Z" fill="#2B2B2B"/>
<path d="M65.4855 97.3457H60.1758V102.655H65.4855V97.3457Z" fill="#2B2B2B"/>
<path d="M70.7941 97.3457H65.4844V102.655H70.7941V97.3457Z" fill="#2B2B2B"/>
<path d="M76.1066 97.3457H70.7969V102.655H76.1066V97.3457Z" fill="#2B2B2B"/>
<path d="M81.4152 97.3457H76.1055V102.655H81.4152V97.3457Z" fill="white"/>
<path d="M86.7238 97.3457H81.4141V102.655H86.7238V97.3457Z" fill="#2B2B2B"/>
<path d="M92.0324 97.3457H86.7227V102.655H92.0324V97.3457Z" fill="white"/>
<path d="M97.3449 97.3457H92.0352V102.655H97.3449V97.3457Z" fill="#2B2B2B"/>
<path d="M102.653 97.3457H97.3438V102.655H102.653V97.3457Z" fill="white"/>
<path d="M107.966 97.3457H102.656V102.655H107.966V97.3457Z" fill="#2B2B2B"/>
<path d="M113.275 97.3457H107.965V102.655H113.275V97.3457Z" fill="white"/>
<path d="M118.587 97.3457H113.277V102.655H118.587V97.3457Z" fill="white"/>
<path d="M123.896 97.3457H118.586V102.655H123.896V97.3457Z" fill="#2B2B2B"/>
<path d="M129.204 97.3457H123.895V102.655H129.204V97.3457Z" fill="white"/>
<path d="M134.513 97.3457H129.203V102.655H134.513V97.3457Z" fill="white"/>
<path d="M139.825 97.3457H134.516V102.655H139.825V97.3457Z" fill="#2B2B2B"/>
<path d="M145.134 97.3457H139.824V102.655H145.134V97.3457Z" fill="#2B2B2B"/>
<path d="M150.443 97.3457H145.133V102.655H150.443V97.3457Z" fill="white"/>
<path d="M155.755 97.3457H150.445V102.655H155.755V97.3457Z" fill="white"/>
<path d="M161.064 97.3457H155.754V102.655H161.064V97.3457Z" fill="white"/>
<path d="M166.372 97.3457H161.062V102.655H166.372V97.3457Z" fill="white"/>
<path d="M171.681 97.3457H166.371V102.655H171.681V97.3457Z" fill="white"/>
<path d="M176.993 97.3457H171.684V102.655H176.993V97.3457Z" fill="white"/>
<path d="M182.302 97.3457H176.992V102.655H182.302V97.3457Z" fill="white"/>
<path d="M187.611 97.3457H182.301V102.655H187.611V97.3457Z" fill="white"/>
<path d="M17.6965 102.654H12.3867V107.964H17.6965V102.654Z" fill="white"/>
<path d="M23.009 102.654H17.6992V107.964H23.009V102.654Z" fill="white"/>
<path d="M28.3175 102.654H23.0078V107.964H28.3175V102.654Z" fill="white"/>
<path d="M33.6261 102.654H28.3164V107.964H33.6261V102.654Z" fill="#2B2B2B"/>
<path d="M38.9386 102.654H33.6289V107.964H38.9386V102.654Z" fill="white"/>
<path d="M44.2472 102.654H38.9375V107.964H44.2472V102.654Z" fill="#2B2B2B"/>
<path d="M49.5558 102.654H44.2461V107.964H49.5558V102.654Z" fill="#2B2B2B"/>
<path d="M54.8644 102.654H49.5547V107.964H54.8644V102.654Z" fill="#2B2B2B"/>
<path d="M60.1769 102.654H54.8672V107.964H60.1769V102.654Z" fill="#2B2B2B"/>
<path d="M65.4855 102.654H60.1758V107.964H65.4855V102.654Z" fill="white"/>
<path d="M70.7941 102.654H65.4844V107.964H70.7941V102.654Z" fill="white"/>
<path d="M76.1066 102.654H70.7969V107.964H76.1066V102.654Z" fill="#2B2B2B"/>
<path d="M81.4152 102.654H76.1055V107.964H81.4152V102.654Z" fill="#2B2B2B"/>
<path d="M86.7238 102.654H81.4141V107.964H86.7238V102.654Z" fill="#2B2B2B"/>
<path d="M92.0324 102.654H86.7227V107.964H92.0324V102.654Z" fill="white"/>
<path d="M97.3449 102.654H92.0352V107.964H97.3449V102.654Z" fill="white"/>
<path d="M102.653 102.654H97.3438V107.964H102.653V102.654Z" fill="#2B2B2B"/>
<path d="M107.966 102.654H102.656V107.964H107.966V102.654Z" fill="#2B2B2B"/>
<path d="M113.275 102.654H107.965V107.964H113.275V102.654Z" fill="#2B2B2B"/>
<path d="M118.587 102.654H113.277V107.964H118.587V102.654Z" fill="#2B2B2B"/>
<path d="M123.896 102.654H118.586V107.964H123.896V102.654Z" fill="#2B2B2B"/>
<path d="M129.204 102.654H123.895V107.964H129.204V102.654Z" fill="#2B2B2B"/>
<path d="M134.513 102.654H129.203V107.964H134.513V102.654Z" fill="white"/>
<path d="M139.825 102.654H134.516V107.964H139.825V102.654Z" fill="white"/>
<path d="M145.134 102.654H139.824V107.964H145.134V102.654Z" fill="white"/>
<path d="M150.443 102.654H145.133V107.964H150.443V102.654Z" fill="white"/>
<path d="M155.755 102.654H150.445V107.964H155.755V102.654Z" fill="white"/>
<path d="M161.064 102.654H155.754V107.964H161.064V102.654Z" fill="white"/>
<path d="M166.372 102.654H161.062V107.964H166.372V102.654Z" fill="white"/>
<path d="M171.681 102.654H166.371V107.964H171.681V102.654Z" fill="white"/>
<path d="M176.993 102.654H171.684V107.964H176.993V102.654Z" fill="white"/>
<path d="M182.302 102.654H176.992V107.964H182.302V102.654Z" fill="#2B2B2B"/>
<path d="M187.611 102.654H182.301V107.964H187.611V102.654Z" fill="white"/>
<path d="M17.6965 107.965H12.3867V113.275H17.6965V107.965Z" fill="white"/>
<path d="M23.009 107.965H17.6992V113.275H23.009V107.965Z" fill="#2B2B2B"/>
<path d="M28.3175 107.965H23.0078V113.275H28.3175V107.965Z" fill="#2B2B2B"/>
<path d="M33.6261 107.965H28.3164V113.275H33.6261V107.965Z" fill="white"/>
<path d="M38.9386 107.965H33.6289V113.275H38.9386V107.965Z" fill="#2B2B2B"/>
<path d="M44.2472 107.965H38.9375V113.275H44.2472V107.965Z" fill="#2B2B2B"/>
<path d="M49.5558 107.965H44.2461V113.275H49.5558V107.965Z" fill="white"/>
<path d="M54.8644 107.965H49.5547V113.275H54.8644V107.965Z" fill="white"/>
<path d="M60.1769 107.965H54.8672V113.275H60.1769V107.965Z" fill="white"/>
<path d="M65.4855 107.965H60.1758V113.275H65.4855V107.965Z" fill="#2B2B2B"/>
<path d="M70.7941 107.965H65.4844V113.275H70.7941V107.965Z" fill="#2B2B2B"/>
<path d="M76.1066 107.965H70.7969V113.275H76.1066V107.965Z" fill="#2B2B2B"/>
<path d="M81.4152 107.965H76.1055V113.275H81.4152V107.965Z" fill="#2B2B2B"/>
<path d="M86.7238 107.965H81.4141V113.275H86.7238V107.965Z" fill="white"/>
<path d="M92.0324 107.965H86.7227V113.275H92.0324V107.965Z" fill="white"/>
<path d="M97.3449 107.965H92.0352V113.275H97.3449V107.965Z" fill="white"/>
<path d="M102.653 107.965H97.3438V113.275H102.653V107.965Z" fill="#2B2B2B"/>
<path d="M107.966 107.965H102.656V113.275H107.966V107.965Z" fill="#2B2B2B"/>
<path d="M113.275 107.965H107.965V113.275H113.275V107.965Z" fill="white"/>
<path d="M118.587 107.965H113.277V113.275H118.587V107.965Z" fill="#2B2B2B"/>
<path d="M123.896 107.965H118.586V113.275H123.896V107.965Z" fill="#2B2B2B"/>
<path d="M129.204 107.965H123.895V113.275H129.204V107.965Z" fill="white"/>
<path d="M134.513 107.965H129.203V113.275H134.513V107.965Z" fill="white"/>
<path d="M139.825 107.965H134.516V113.275H139.825V107.965Z" fill="#2B2B2B"/>
<path d="M145.134 107.965H139.824V113.275H145.134V107.965Z" fill="#2B2B2B"/>
<path d="M150.443 107.965H145.133V113.275H150.443V107.965Z" fill="#2B2B2B"/>
<path d="M155.755 107.965H150.445V113.275H155.755V107.965Z" fill="#2B2B2B"/>
<path d="M161.064 107.965H155.754V113.275H161.064V107.965Z" fill="#2B2B2B"/>
<path d="M166.372 107.965H161.062V113.275H166.372V107.965Z" fill="#2B2B2B"/>
<path d="M171.681 107.965H166.371V113.275H171.681V107.965Z" fill="white"/>
<path d="M176.993 107.965H171.684V113.275H176.993V107.965Z" fill="#2B2B2B"/>
<path d="M182.302 107.965H176.992V113.275H182.302V107.965Z" fill="white"/>
<path d="M187.611 107.965H182.301V113.275H187.611V107.965Z" fill="#2B2B2B"/>
<path d="M17.6965 113.273H12.3867V118.583H17.6965V113.273Z" fill="white"/>
<path d="M23.009 113.273H17.6992V118.583H23.009V113.273Z" fill="white"/>
<path d="M28.3175 113.273H23.0078V118.583H28.3175V113.273Z" fill="#2B2B2B"/>
<path d="M33.6261 113.273H28.3164V118.583H33.6261V113.273Z" fill="white"/>
<path d="M38.9386 113.273H33.6289V118.583H38.9386V113.273Z" fill="white"/>
<path d="M44.2472 113.273H38.9375V118.583H44.2472V113.273Z" fill="#2B2B2B"/>
<path d="M49.5558 113.273H44.2461V118.583H49.5558V113.273Z" fill="#2B2B2B"/>
<path d="M54.8644 113.273H49.5547V118.583H54.8644V113.273Z" fill="white"/>
<path d="M60.1769 113.273H54.8672V118.583H60.1769V113.273Z" fill="#2B2B2B"/>
<path d="M65.4855 113.273H60.1758V118.583H65.4855V113.273Z" fill="#2B2B2B"/>
<path d="M70.7941 113.273H65.4844V118.583H70.7941V113.273Z" fill="#2B2B2B"/>
<path d="M76.1066 113.273H70.7969V118.583H76.1066V113.273Z" fill="white"/>
<path d="M81.4152 113.273H76.1055V118.583H81.4152V113.273Z" fill="#2B2B2B"/>
<path d="M86.7238 113.273H81.4141V118.583H86.7238V113.273Z" fill="white"/>
<path d="M92.0324 113.273H86.7227V118.583H92.0324V113.273Z" fill="white"/>
<path d="M97.3449 113.273H92.0352V118.583H97.3449V113.273Z" fill="white"/>
<path d="M102.653 113.273H97.3438V118.583H102.653V113.273Z" fill="#2B2B2B"/>
<path d="M107.966 113.273H102.656V118.583H107.966V113.273Z" fill="white"/>
<path d="M113.275 113.273H107.965V118.583H113.275V113.273Z" fill="white"/>
<path d="M118.587 113.273H113.277V118.583H118.587V113.273Z" fill="white"/>
<path d="M123.896 113.273H118.586V118.583H123.896V113.273Z" fill="white"/>
<path d="M129.204 113.273H123.895V118.583H129.204V113.273Z" fill="#2B2B2B"/>
<path d="M134.513 113.273H129.203V118.583H134.513V113.273Z" fill="white"/>
<path d="M139.825 113.273H134.516V118.583H139.825V113.273Z" fill="#2B2B2B"/>
<path d="M145.134 113.273H139.824V118.583H145.134V113.273Z" fill="white"/>
<path d="M150.443 113.273H145.133V118.583H150.443V113.273Z" fill="white"/>
<path d="M155.755 113.273H150.445V118.583H155.755V113.273Z" fill="#2B2B2B"/>
<path d="M161.064 113.273H155.754V118.583H161.064V113.273Z" fill="white"/>
<path d="M166.372 113.273H161.062V118.583H166.372V113.273Z" fill="#2B2B2B"/>
<path d="M171.681 113.273H166.371V118.583H171.681V113.273Z" fill="white"/>
<path d="M176.993 113.273H171.684V118.583H176.993V113.273Z" fill="#2B2B2B"/>
<path d="M182.302 113.273H176.992V118.583H182.302V113.273Z" fill="#2B2B2B"/>
<path d="M187.611 113.273H182.301V118.583H187.611V113.273Z" fill="white"/>
<path d="M17.6965 118.584H12.3867V123.894H17.6965V118.584Z" fill="white"/>
<path d="M23.009 118.584H17.6992V123.894H23.009V118.584Z" fill="#2B2B2B"/>
<path d="M28.3175 118.584H23.0078V123.894H28.3175V118.584Z" fill="#2B2B2B"/>
<path d="M33.6261 118.584H28.3164V123.894H33.6261V118.584Z" fill="white"/>
<path d="M38.9386 118.584H33.6289V123.894H38.9386V118.584Z" fill="white"/>
<path d="M44.2472 118.584H38.9375V123.894H44.2472V118.584Z" fill="#2B2B2B"/>
<path d="M49.5558 118.584H44.2461V123.894H49.5558V118.584Z" fill="white"/>
<path d="M54.8644 118.584H49.5547V123.894H54.8644V118.584Z" fill="#2B2B2B"/>
<path d="M60.1769 118.584H54.8672V123.894H60.1769V118.584Z" fill="white"/>
<path d="M65.4855 118.584H60.1758V123.894H65.4855V118.584Z" fill="#2B2B2B"/>
<path d="M70.7941 118.584H65.4844V123.894H70.7941V118.584Z" fill="#2B2B2B"/>
<path d="M76.1066 118.584H70.7969V123.894H76.1066V118.584Z" fill="#2B2B2B"/>
<path d="M81.4152 118.584H76.1055V123.894H81.4152V118.584Z" fill="#2B2B2B"/>
<path d="M86.7238 118.584H81.4141V123.894H86.7238V118.584Z" fill="white"/>
<path d="M92.0324 118.584H86.7227V123.894H92.0324V118.584Z" fill="white"/>
<path d="M97.3449 118.584H92.0352V123.894H97.3449V118.584Z" fill="#2B2B2B"/>
<path d="M102.653 118.584H97.3438V123.894H102.653V118.584Z" fill="#2B2B2B"/>
<path d="M107.966 118.584H102.656V123.894H107.966V118.584Z" fill="white"/>
<path d="M113.275 118.584H107.965V123.894H113.275V118.584Z" fill="white"/>
<path d="M118.587 118.584H113.277V123.894H118.587V118.584Z" fill="white"/>
<path d="M123.896 118.584H118.586V123.894H123.896V118.584Z" fill="#2B2B2B"/>
<path d="M129.204 118.584H123.895V123.894H129.204V118.584Z" fill="white"/>
<path d="M134.513 118.584H129.203V123.894H134.513V118.584Z" fill="white"/>
<path d="M139.825 118.584H134.516V123.894H139.825V118.584Z" fill="white"/>
<path d="M145.134 118.584H139.824V123.894H145.134V118.584Z" fill="#2B2B2B"/>
<path d="M150.443 118.584H145.133V123.894H150.443V118.584Z" fill="#2B2B2B"/>
<path d="M155.755 118.584H150.445V123.894H155.755V118.584Z" fill="#2B2B2B"/>
<path d="M161.064 118.584H155.754V123.894H161.064V118.584Z" fill="#2B2B2B"/>
<path d="M166.372 118.584H161.062V123.894H166.372V118.584Z" fill="#2B2B2B"/>
<path d="M171.681 118.584H166.371V123.894H171.681V118.584Z" fill="#2B2B2B"/>
<path d="M176.993 118.584H171.684V123.894H176.993V118.584Z" fill="white"/>
<path d="M182.302 118.584H176.992V123.894H182.302V118.584Z" fill="#2B2B2B"/>
<path d="M187.611 118.584H182.301V123.894H187.611V118.584Z" fill="#2B2B2B"/>
<path d="M17.6965 123.895H12.3867V129.204H17.6965V123.895Z" fill="white"/>
<path d="M23.009 123.895H17.6992V129.204H23.009V123.895Z" fill="white"/>
<path d="M28.3175 123.895H23.0078V129.204H28.3175V123.895Z" fill="#2B2B2B"/>
<path d="M33.6261 123.895H28.3164V129.204H33.6261V123.895Z" fill="white"/>
<path d="M38.9386 123.895H33.6289V129.204H38.9386V123.895Z" fill="white"/>
<path d="M44.2472 123.895H38.9375V129.204H44.2472V123.895Z" fill="white"/>
<path d="M49.5558 123.895H44.2461V129.204H49.5558V123.895Z" fill="#2B2B2B"/>
<path d="M54.8644 123.895H49.5547V129.204H54.8644V123.895Z" fill="#2B2B2B"/>
<path d="M60.1769 123.895H54.8672V129.204H60.1769V123.895Z" fill="#2B2B2B"/>
<path d="M65.4855 123.895H60.1758V129.204H65.4855V123.895Z" fill="white"/>
<path d="M70.7941 123.895H65.4844V129.204H70.7941V123.895Z" fill="#2B2B2B"/>
<path d="M76.1066 123.895H70.7969V129.204H76.1066V123.895Z" fill="#2B2B2B"/>
<path d="M81.4152 123.895H76.1055V129.204H81.4152V123.895Z" fill="#2B2B2B"/>
<path d="M86.7238 123.895H81.4141V129.204H86.7238V123.895Z" fill="#2B2B2B"/>
<path d="M92.0324 123.895H86.7227V129.204H92.0324V123.895Z" fill="#2B2B2B"/>
<path d="M97.3449 123.895H92.0352V129.204H97.3449V123.895Z" fill="#2B2B2B"/>
<path d="M102.653 123.895H97.3438V129.204H102.653V123.895Z" fill="white"/>
<path d="M107.966 123.895H102.656V129.204H107.966V123.895Z" fill="#2B2B2B"/>
<path d="M113.275 123.895H107.965V129.204H113.275V123.895Z" fill="white"/>
<path d="M118.587 123.895H113.277V129.204H118.587V123.895Z" fill="white"/>
<path d="M123.896 123.895H118.586V129.204H123.896V123.895Z" fill="white"/>
<path d="M129.204 123.895H123.895V129.204H129.204V123.895Z" fill="#2B2B2B"/>
<path d="M134.513 123.895H129.203V129.204H134.513V123.895Z" fill="#2B2B2B"/>
<path d="M139.825 123.895H134.516V129.204H139.825V123.895Z" fill="white"/>
<path d="M145.134 123.895H139.824V129.204H145.134V123.895Z" fill="#2B2B2B"/>
<path d="M150.443 123.895H145.133V129.204H150.443V123.895Z" fill="#2B2B2B"/>
<path d="M155.755 123.895H150.445V129.204H155.755V123.895Z" fill="white"/>
<path d="M161.064 123.895H155.754V129.204H161.064V123.895Z" fill="#2B2B2B"/>
<path d="M166.372 123.895H161.062V129.204H166.372V123.895Z" fill="#2B2B2B"/>
<path d="M171.681 123.895H166.371V129.204H171.681V123.895Z" fill="white"/>
<path d="M176.993 123.895H171.684V129.204H176.993V123.895Z" fill="#2B2B2B"/>
<path d="M182.302 123.895H176.992V129.204H182.302V123.895Z" fill="white"/>
<path d="M187.611 123.895H182.301V129.204H187.611V123.895Z" fill="white"/>
<path d="M17.6965 129.203H12.3867V134.513H17.6965V129.203Z" fill="#2B2B2B"/>
<path d="M23.009 129.203H17.6992V134.513H23.009V129.203Z" fill="#2B2B2B"/>
<path d="M28.3175 129.203H23.0078V134.513H28.3175V129.203Z" fill="#2B2B2B"/>
<path d="M33.6261 129.203H28.3164V134.513H33.6261V129.203Z" fill="white"/>
<path d="M38.9386 129.203H33.6289V134.513H38.9386V129.203Z" fill="#2B2B2B"/>
<path d="M44.2472 129.203H38.9375V134.513H44.2472V129.203Z" fill="white"/>
<path d="M49.5558 129.203H44.2461V134.513H49.5558V129.203Z" fill="white"/>
<path d="M54.8644 129.203H49.5547V134.513H54.8644V129.203Z" fill="#2B2B2B"/>
<path d="M60.1769 129.203H54.8672V134.513H60.1769V129.203Z" fill="#2B2B2B"/>
<path d="M65.4855 129.203H60.1758V134.513H65.4855V129.203Z" fill="#2B2B2B"/>
<path d="M70.7941 129.203H65.4844V134.513H70.7941V129.203Z" fill="#2B2B2B"/>
<path d="M76.1066 129.203H70.7969V134.513H76.1066V129.203Z" fill="#2B2B2B"/>
<path d="M81.4152 129.203H76.1055V134.513H81.4152V129.203Z" fill="#2B2B2B"/>
<path d="M86.7238 129.203H81.4141V134.513H86.7238V129.203Z" fill="#2B2B2B"/>
<path d="M92.0324 129.203H86.7227V134.513H92.0324V129.203Z" fill="white"/>
<path d="M97.3449 129.203H92.0352V134.513H97.3449V129.203Z" fill="#2B2B2B"/>
<path d="M102.653 129.203H97.3438V134.513H102.653V129.203Z" fill="#2B2B2B"/>
<path d="M107.966 129.203H102.656V134.513H107.966V129.203Z" fill="#2B2B2B"/>
<path d="M113.275 129.203H107.965V134.513H113.275V129.203Z" fill="white"/>
<path d="M118.587 129.203H113.277V134.513H118.587V129.203Z" fill="#2B2B2B"/>
<path d="M123.896 129.203H118.586V134.513H123.896V129.203Z" fill="#2B2B2B"/>
<path d="M129.204 129.203H123.895V134.513H129.204V129.203Z" fill="white"/>
<path d="M134.513 129.203H129.203V134.513H134.513V129.203Z" fill="white"/>
<path d="M139.825 129.203H134.516V134.513H139.825V129.203Z" fill="white"/>
<path d="M145.134 129.203H139.824V134.513H145.134V129.203Z" fill="#2B2B2B"/>
<path d="M150.443 129.203H145.133V134.513H150.443V129.203Z" fill="#2B2B2B"/>
<path d="M155.755 129.203H150.445V134.513H155.755V129.203Z" fill="#2B2B2B"/>
<path d="M161.064 129.203H155.754V134.513H161.064V129.203Z" fill="#2B2B2B"/>
<path d="M166.372 129.203H161.062V134.513H166.372V129.203Z" fill="white"/>
<path d="M171.681 129.203H166.371V134.513H171.681V129.203Z" fill="#2B2B2B"/>
<path d="M176.993 129.203H171.684V134.513H176.993V129.203Z" fill="white"/>
<path d="M182.302 129.203H176.992V134.513H182.302V129.203Z" fill="white"/>
<path d="M187.611 129.203H182.301V134.513H187.611V129.203Z" fill="white"/>
<path d="M17.6965 134.514H12.3867V139.823H17.6965V134.514Z" fill="#2B2B2B"/>
<path d="M23.009 134.514H17.6992V139.823H23.009V134.514Z" fill="white"/>
<path d="M28.3175 134.514H23.0078V139.823H28.3175V134.514Z" fill="#2B2B2B"/>
<path d="M33.6261 134.514H28.3164V139.823H33.6261V134.514Z" fill="white"/>
<path d="M38.9386 134.514H33.6289V139.823H38.9386V134.514Z" fill="#2B2B2B"/>
<path d="M44.2472 134.514H38.9375V139.823H44.2472V134.514Z" fill="white"/>
<path d="M49.5558 134.514H44.2461V139.823H49.5558V134.514Z" fill="#2B2B2B"/>
<path d="M54.8644 134.514H49.5547V139.823H54.8644V134.514Z" fill="white"/>
<path d="M60.1769 134.514H54.8672V139.823H60.1769V134.514Z" fill="white"/>
<path d="M65.4855 134.514H60.1758V139.823H65.4855V134.514Z" fill="white"/>
<path d="M70.7941 134.514H65.4844V139.823H70.7941V134.514Z" fill="#2B2B2B"/>
<path d="M76.1066 134.514H70.7969V139.823H76.1066V134.514Z" fill="white"/>
<path d="M81.4152 134.514H76.1055V139.823H81.4152V134.514Z" fill="white"/>
<path d="M86.7238 134.514H81.4141V139.823H86.7238V134.514Z" fill="white"/>
<path d="M92.0324 134.514H86.7227V139.823H92.0324V134.514Z" fill="white"/>
<path d="M97.3449 134.514H92.0352V139.823H97.3449V134.514Z" fill="#2B2B2B"/>
<path d="M102.653 134.514H97.3438V139.823H102.653V134.514Z" fill="#2B2B2B"/>
<path d="M107.966 134.514H102.656V139.823H107.966V134.514Z" fill="#2B2B2B"/>
<path d="M113.275 134.514H107.965V139.823H113.275V134.514Z" fill="#2B2B2B"/>
<path d="M118.587 134.514H113.277V139.823H118.587V134.514Z" fill="#2B2B2B"/>
<path d="M123.896 134.514H118.586V139.823H123.896V134.514Z" fill="white"/>
<path d="M129.204 134.514H123.895V139.823H129.204V134.514Z" fill="#2B2B2B"/>
<path d="M134.513 134.514H129.203V139.823H134.513V134.514Z" fill="#2B2B2B"/>
<path d="M139.825 134.514H134.516V139.823H139.825V134.514Z" fill="white"/>
<path d="M145.134 134.514H139.824V139.823H145.134V134.514Z" fill="white"/>
<path d="M150.443 134.514H145.133V139.823H150.443V134.514Z" fill="white"/>
<path d="M155.755 134.514H150.445V139.823H155.755V134.514Z" fill="#2B2B2B"/>
<path d="M161.064 134.514H155.754V139.823H161.064V134.514Z" fill="#2B2B2B"/>
<path d="M166.372 134.514H161.062V139.823H166.372V134.514Z" fill="white"/>
<path d="M171.681 134.514H166.371V139.823H171.681V134.514Z" fill="white"/>
<path d="M176.993 134.514H171.684V139.823H176.993V134.514Z" fill="#2B2B2B"/>
<path d="M182.302 134.514H176.992V139.823H182.302V134.514Z" fill="white"/>
<path d="M187.611 134.514H182.301V139.823H187.611V134.514Z" fill="#2B2B2B"/>
<path d="M17.6965 139.822H12.3867V145.132H17.6965V139.822Z" fill="white"/>
<path d="M23.009 139.822H17.6992V145.132H23.009V139.822Z" fill="#2B2B2B"/>
<path d="M28.3175 139.822H23.0078V145.132H28.3175V139.822Z" fill="#2B2B2B"/>
<path d="M33.6261 139.822H28.3164V145.132H33.6261V139.822Z" fill="#2B2B2B"/>
<path d="M38.9386 139.822H33.6289V145.132H38.9386V139.822Z" fill="#2B2B2B"/>
<path d="M44.2472 139.822H38.9375V145.132H44.2472V139.822Z" fill="#2B2B2B"/>
<path d="M49.5558 139.822H44.2461V145.132H49.5558V139.822Z" fill="white"/>
<path d="M54.8644 139.822H49.5547V145.132H54.8644V139.822Z" fill="white"/>
<path d="M60.1769 139.822H54.8672V145.132H60.1769V139.822Z" fill="white"/>
<path d="M65.4855 139.822H60.1758V145.132H65.4855V139.822Z" fill="#2B2B2B"/>
<path d="M70.7941 139.822H65.4844V145.132H70.7941V139.822Z" fill="white"/>
<path d="M76.1066 139.822H70.7969V145.132H76.1066V139.822Z" fill="white"/>
<path d="M81.4152 139.822H76.1055V145.132H81.4152V139.822Z" fill="#2B2B2B"/>
<path d="M86.7238 139.822H81.4141V145.132H86.7238V139.822Z" fill="#2B2B2B"/>
<path d="M92.0324 139.822H86.7227V145.132H92.0324V139.822Z" fill="#2B2B2B"/>
<path d="M97.3449 139.822H92.0352V145.132H97.3449V139.822Z" fill="white"/>
<path d="M102.653 139.822H97.3438V145.132H102.653V139.822Z" fill="white"/>
<path d="M107.966 139.822H102.656V145.132H107.966V139.822Z" fill="#2B2B2B"/>
<path d="M113.275 139.822H107.965V145.132H113.275V139.822Z" fill="#2B2B2B"/>
<path d="M118.587 139.822H113.277V145.132H118.587V139.822Z" fill="white"/>
<path d="M123.896 139.822H118.586V145.132H123.896V139.822Z" fill="#2B2B2B"/>
<path d="M129.204 139.822H123.895V145.132H129.204V139.822Z" fill="#2B2B2B"/>
<path d="M134.513 139.822H129.203V145.132H134.513V139.822Z" fill="#2B2B2B"/>
<path d="M139.825 139.822H134.516V145.132H139.825V139.822Z" fill="white"/>
<path d="M145.134 139.822H139.824V145.132H145.134V139.822Z" fill="white"/>
<path d="M150.443 139.822H145.133V145.132H150.443V139.822Z" fill="white"/>
<path d="M155.755 139.822H150.445V145.132H155.755V139.822Z" fill="white"/>
<path d="M161.064 139.822H155.754V145.132H161.064V139.822Z" fill="white"/>
<path d="M166.372 139.822H161.062V145.132H166.372V139.822Z" fill="white"/>
<path d="M171.681 139.822H166.371V145.132H171.681V139.822Z" fill="white"/>
<path d="M176.993 139.822H171.684V145.132H176.993V139.822Z" fill="#2B2B2B"/>
<path d="M182.302 139.822H176.992V145.132H182.302V139.822Z" fill="#2B2B2B"/>
<path d="M187.611 139.822H182.301V145.132H187.611V139.822Z" fill="white"/>
<path d="M17.6965 145.133H12.3867V150.443H17.6965V145.133Z" fill="#2B2B2B"/>
<path d="M23.009 145.133H17.6992V150.443H23.009V145.133Z" fill="#2B2B2B"/>
<path d="M28.3175 145.133H23.0078V150.443H28.3175V145.133Z" fill="#2B2B2B"/>
<path d="M33.6261 145.133H28.3164V150.443H33.6261V145.133Z" fill="#2B2B2B"/>
<path d="M38.9386 145.133H33.6289V150.443H38.9386V145.133Z" fill="#2B2B2B"/>
<path d="M44.2472 145.133H38.9375V150.443H44.2472V145.133Z" fill="#2B2B2B"/>
<path d="M49.5558 145.133H44.2461V150.443H49.5558V145.133Z" fill="#2B2B2B"/>
<path d="M54.8644 145.133H49.5547V150.443H54.8644V145.133Z" fill="#2B2B2B"/>
<path d="M60.1769 145.133H54.8672V150.443H60.1769V145.133Z" fill="white"/>
<path d="M65.4855 145.133H60.1758V150.443H65.4855V145.133Z" fill="#2B2B2B"/>
<path d="M70.7941 145.133H65.4844V150.443H70.7941V145.133Z" fill="white"/>
<path d="M76.1066 145.133H70.7969V150.443H76.1066V145.133Z" fill="white"/>
<path d="M81.4152 145.133H76.1055V150.443H81.4152V145.133Z" fill="#2B2B2B"/>
<path d="M86.7238 145.133H81.4141V150.443H86.7238V145.133Z" fill="white"/>
<path d="M92.0324 145.133H86.7227V150.443H92.0324V145.133Z" fill="#2B2B2B"/>
<path d="M97.3449 145.133H92.0352V150.443H97.3449V145.133Z" fill="white"/>
<path d="M102.653 145.133H97.3438V150.443H102.653V145.133Z" fill="white"/>
<path d="M107.966 145.133H102.656V150.443H107.966V145.133Z" fill="#2B2B2B"/>
<path d="M113.275 145.133H107.965V150.443H113.275V145.133Z" fill="white"/>
<path d="M118.587 145.133H113.277V150.443H118.587V145.133Z" fill="white"/>
<path d="M123.896 145.133H118.586V150.443H123.896V145.133Z" fill="white"/>
<path d="M129.204 145.133H123.895V150.443H129.204V145.133Z" fill="#2B2B2B"/>
<path d="M134.513 145.133H129.203V150.443H134.513V145.133Z" fill="white"/>
<path d="M139.825 145.133H134.516V150.443H139.825V145.133Z" fill="white"/>
<path d="M145.134 145.133H139.824V150.443H145.134V145.133Z" fill="white"/>
<path d="M150.443 145.133H145.133V150.443H150.443V145.133Z" fill="#2B2B2B"/>
<path d="M155.755 145.133H150.445V150.443H155.755V145.133Z" fill="#2B2B2B"/>
<path d="M161.064 145.133H155.754V150.443H161.064V145.133Z" fill="#2B2B2B"/>
<path d="M166.372 145.133H161.062V150.443H166.372V145.133Z" fill="white"/>
<path d="M171.681 145.133H166.371V150.443H171.681V145.133Z" fill="white"/>
<path d="M176.993 145.133H171.684V150.443H176.993V145.133Z" fill="#2B2B2B"/>
<path d="M182.302 145.133H176.992V150.443H182.302V145.133Z" fill="#2B2B2B"/>
<path d="M187.611 145.133H182.301V150.443H187.611V145.133Z" fill="#2B2B2B"/>
<path d="M17.6965 150.441H12.3867V155.751H17.6965V150.441Z" fill="white"/>
<path d="M23.009 150.441H17.6992V155.751H23.009V150.441Z" fill="white"/>
<path d="M28.3175 150.441H23.0078V155.751H28.3175V150.441Z" fill="white"/>
<path d="M33.6261 150.441H28.3164V155.751H33.6261V150.441Z" fill="white"/>
<path d="M38.9386 150.441H33.6289V155.751H38.9386V150.441Z" fill="white"/>
<path d="M44.2472 150.441H38.9375V155.751H44.2472V150.441Z" fill="white"/>
<path d="M49.5558 150.441H44.2461V155.751H49.5558V150.441Z" fill="white"/>
<path d="M54.8644 150.441H49.5547V155.751H54.8644V150.441Z" fill="#2B2B2B"/>
<path d="M60.1769 150.441H54.8672V155.751H60.1769V150.441Z" fill="#2B2B2B"/>
<path d="M65.4855 150.441H60.1758V155.751H65.4855V150.441Z" fill="#2B2B2B"/>
<path d="M70.7941 150.441H65.4844V155.751H70.7941V150.441Z" fill="#2B2B2B"/>
<path d="M76.1066 150.441H70.7969V155.751H76.1066V150.441Z" fill="#2B2B2B"/>
<path d="M81.4152 150.441H76.1055V155.751H81.4152V150.441Z" fill="white"/>
<path d="M86.7238 150.441H81.4141V155.751H86.7238V150.441Z" fill="#2B2B2B"/>
<path d="M92.0324 150.441H86.7227V155.751H92.0324V150.441Z" fill="white"/>
<path d="M97.3449 150.441H92.0352V155.751H97.3449V150.441Z" fill="#2B2B2B"/>
<path d="M102.653 150.441H97.3438V155.751H102.653V150.441Z" fill="#2B2B2B"/>
<path d="M107.966 150.441H102.656V155.751H107.966V150.441Z" fill="white"/>
<path d="M113.275 150.441H107.965V155.751H113.275V150.441Z" fill="white"/>
<path d="M118.587 150.441H113.277V155.751H118.587V150.441Z" fill="white"/>
<path d="M123.896 150.441H118.586V155.751H123.896V150.441Z" fill="white"/>
<path d="M129.204 150.441H123.895V155.751H129.204V150.441Z" fill="white"/>
<path d="M134.513 150.441H129.203V155.751H134.513V150.441Z" fill="white"/>
<path d="M139.825 150.441H134.516V155.751H139.825V150.441Z" fill="white"/>
<path d="M145.134 150.441H139.824V155.751H145.134V150.441Z" fill="white"/>
<path d="M150.443 150.441H145.133V155.751H150.443V150.441Z" fill="#2B2B2B"/>
<path d="M155.755 150.441H150.445V155.751H155.755V150.441Z" fill="white"/>
<path d="M161.064 150.441H155.754V155.751H161.064V150.441Z" fill="#2B2B2B"/>
<path d="M166.372 150.441H161.062V155.751H166.372V150.441Z" fill="white"/>
<path d="M171.681 150.441H166.371V155.751H171.681V150.441Z" fill="white"/>
<path d="M176.993 150.441H171.684V155.751H176.993V150.441Z" fill="white"/>
<path d="M182.302 150.441H176.992V155.751H182.302V150.441Z" fill="#2B2B2B"/>
<path d="M187.611 150.441H182.301V155.751H187.611V150.441Z" fill="#2B2B2B"/>
<path d="M17.6965 155.752H12.3867V161.062H17.6965V155.752Z" fill="white"/>
<path d="M23.009 155.752H17.6992V161.062H23.009V155.752Z" fill="#2B2B2B"/>
<path d="M28.3175 155.752H23.0078V161.062H28.3175V155.752Z" fill="#2B2B2B"/>
<path d="M33.6261 155.752H28.3164V161.062H33.6261V155.752Z" fill="#2B2B2B"/>
<path d="M38.9386 155.752H33.6289V161.062H38.9386V155.752Z" fill="#2B2B2B"/>
<path d="M44.2472 155.752H38.9375V161.062H44.2472V155.752Z" fill="#2B2B2B"/>
<path d="M49.5558 155.752H44.2461V161.062H49.5558V155.752Z" fill="white"/>
<path d="M54.8644 155.752H49.5547V161.062H54.8644V155.752Z" fill="#2B2B2B"/>
<path d="M60.1769 155.752H54.8672V161.062H60.1769V155.752Z" fill="#2B2B2B"/>
<path d="M65.4855 155.752H60.1758V161.062H65.4855V155.752Z" fill="#2B2B2B"/>
<path d="M70.7941 155.752H65.4844V161.062H70.7941V155.752Z" fill="white"/>
<path d="M76.1066 155.752H70.7969V161.062H76.1066V155.752Z" fill="#2B2B2B"/>
<path d="M81.4152 155.752H76.1055V161.062H81.4152V155.752Z" fill="white"/>
<path d="M86.7238 155.752H81.4141V161.062H86.7238V155.752Z" fill="white"/>
<path d="M92.0324 155.752H86.7227V161.062H92.0324V155.752Z" fill="#2B2B2B"/>
<path d="M97.3449 155.752H92.0352V161.062H97.3449V155.752Z" fill="white"/>
<path d="M102.653 155.752H97.3438V161.062H102.653V155.752Z" fill="white"/>
<path d="M107.966 155.752H102.656V161.062H107.966V155.752Z" fill="#2B2B2B"/>
<path d="M113.275 155.752H107.965V161.062H113.275V155.752Z" fill="#2B2B2B"/>
<path d="M118.587 155.752H113.277V161.062H118.587V155.752Z" fill="#2B2B2B"/>
<path d="M123.896 155.752H118.586V161.062H123.896V155.752Z" fill="white"/>
<path d="M129.204 155.752H123.895V161.062H129.204V155.752Z" fill="white"/>
<path d="M134.513 155.752H129.203V161.062H134.513V155.752Z" fill="white"/>
<path d="M139.825 155.752H134.516V161.062H139.825V155.752Z" fill="#2B2B2B"/>
<path d="M145.134 155.752H139.824V161.062H145.134V155.752Z" fill="white"/>
<path d="M150.443 155.752H145.133V161.062H150.443V155.752Z" fill="#2B2B2B"/>
<path d="M155.755 155.752H150.445V161.062H155.755V155.752Z" fill="#2B2B2B"/>
<path d="M161.064 155.752H155.754V161.062H161.064V155.752Z" fill="#2B2B2B"/>
<path d="M166.372 155.752H161.062V161.062H166.372V155.752Z" fill="white"/>
<path d="M171.681 155.752H166.371V161.062H171.681V155.752Z" fill="white"/>
<path d="M176.993 155.752H171.684V161.062H176.993V155.752Z" fill="white"/>
<path d="M182.302 155.752H176.992V161.062H182.302V155.752Z" fill="white"/>
<path d="M187.611 155.752H182.301V161.062H187.611V155.752Z" fill="#2B2B2B"/>
<path d="M17.6965 161.062H12.3867V166.372H17.6965V161.062Z" fill="white"/>
<path d="M23.009 161.062H17.6992V166.372H23.009V161.062Z" fill="#2B2B2B"/>
<path d="M28.3175 161.062H23.0078V166.372H28.3175V161.062Z" fill="white"/>
<path d="M33.6261 161.062H28.3164V166.372H33.6261V161.062Z" fill="white"/>
<path d="M38.9386 161.062H33.6289V166.372H38.9386V161.062Z" fill="white"/>
<path d="M44.2472 161.062H38.9375V166.372H44.2472V161.062Z" fill="#2B2B2B"/>
<path d="M49.5558 161.062H44.2461V166.372H49.5558V161.062Z" fill="white"/>
<path d="M54.8644 161.062H49.5547V166.372H54.8644V161.062Z" fill="#2B2B2B"/>
<path d="M60.1769 161.062H54.8672V166.372H60.1769V161.062Z" fill="#2B2B2B"/>
<path d="M65.4855 161.062H60.1758V166.372H65.4855V161.062Z" fill="#2B2B2B"/>
<path d="M70.7941 161.062H65.4844V166.372H70.7941V161.062Z" fill="#2B2B2B"/>
<path d="M76.1066 161.062H70.7969V166.372H76.1066V161.062Z" fill="white"/>
<path d="M81.4152 161.062H76.1055V166.372H81.4152V161.062Z" fill="#2B2B2B"/>
<path d="M86.7238 161.062H81.4141V166.372H86.7238V161.062Z" fill="#2B2B2B"/>
<path d="M92.0324 161.062H86.7227V166.372H92.0324V161.062Z" fill="#2B2B2B"/>
<path d="M97.3449 161.062H92.0352V166.372H97.3449V161.062Z" fill="white"/>
<path d="M102.653 161.062H97.3438V166.372H102.653V161.062Z" fill="white"/>
<path d="M107.966 161.062H102.656V166.372H107.966V161.062Z" fill="#2B2B2B"/>
<path d="M113.275 161.062H107.965V166.372H113.275V161.062Z" fill="white"/>
<path d="M118.587 161.062H113.277V166.372H118.587V161.062Z" fill="#2B2B2B"/>
<path d="M123.896 161.062H118.586V166.372H123.896V161.062Z" fill="white"/>
<path d="M129.204 161.062H123.895V166.372H129.204V161.062Z" fill="white"/>
<path d="M134.513 161.062H129.203V166.372H134.513V161.062Z" fill="#2B2B2B"/>
<path d="M139.825 161.062H134.516V166.372H139.825V161.062Z" fill="white"/>
<path d="M145.134 161.062H139.824V166.372H145.134V161.062Z" fill="white"/>
<path d="M150.443 161.062H145.133V166.372H150.443V161.062Z" fill="white"/>
<path d="M155.755 161.062H150.445V166.372H155.755V161.062Z" fill="white"/>
<path d="M161.064 161.062H155.754V166.372H161.064V161.062Z" fill="white"/>
<path d="M166.372 161.062H161.062V166.372H166.372V161.062Z" fill="white"/>
<path d="M171.681 161.062H166.371V166.372H171.681V161.062Z" fill="white"/>
<path d="M176.993 161.062H171.684V166.372H176.993V161.062Z" fill="white"/>
<path d="M182.302 161.062H176.992V166.372H182.302V161.062Z" fill="#2B2B2B"/>
<path d="M187.611 161.062H182.301V166.372H187.611V161.062Z" fill="#2B2B2B"/>
<path d="M17.6965 166.371H12.3867V171.681H17.6965V166.371Z" fill="white"/>
<path d="M23.009 166.371H17.6992V171.681H23.009V166.371Z" fill="#2B2B2B"/>
<path d="M28.3175 166.371H23.0078V171.681H28.3175V166.371Z" fill="white"/>
<path d="M33.6261 166.371H28.3164V171.681H33.6261V166.371Z" fill="white"/>
<path d="M38.9386 166.371H33.6289V171.681H38.9386V166.371Z" fill="white"/>
<path d="M44.2472 166.371H38.9375V171.681H44.2472V166.371Z" fill="#2B2B2B"/>
<path d="M49.5558 166.371H44.2461V171.681H49.5558V166.371Z" fill="white"/>
<path d="M54.8644 166.371H49.5547V171.681H54.8644V166.371Z" fill="#2B2B2B"/>
<path d="M60.1769 166.371H54.8672V171.681H60.1769V166.371Z" fill="white"/>
<path d="M65.4855 166.371H60.1758V171.681H65.4855V166.371Z" fill="white"/>
<path d="M70.7941 166.371H65.4844V171.681H70.7941V166.371Z" fill="white"/>
<path d="M76.1066 166.371H70.7969V171.681H76.1066V166.371Z" fill="#2B2B2B"/>
<path d="M81.4152 166.371H76.1055V171.681H81.4152V166.371Z" fill="white"/>
<path d="M86.7238 166.371H81.4141V171.681H86.7238V166.371Z" fill="white"/>
<path d="M92.0324 166.371H86.7227V171.681H92.0324V166.371Z" fill="#2B2B2B"/>
<path d="M97.3449 166.371H92.0352V171.681H97.3449V166.371Z" fill="white"/>
<path d="M102.653 166.371H97.3438V171.681H102.653V166.371Z" fill="white"/>
<path d="M107.966 166.371H102.656V171.681H107.966V166.371Z" fill="#2B2B2B"/>
<path d="M113.275 166.371H107.965V171.681H113.275V166.371Z" fill="white"/>
<path d="M118.587 166.371H113.277V171.681H118.587V166.371Z" fill="#2B2B2B"/>
<path d="M123.896 166.371H118.586V171.681H123.896V166.371Z" fill="white"/>
<path d="M129.204 166.371H123.895V171.681H129.204V166.371Z" fill="white"/>
<path d="M134.513 166.371H129.203V171.681H134.513V166.371Z" fill="#2B2B2B"/>
<path d="M139.825 166.371H134.516V171.681H139.825V166.371Z" fill="#2B2B2B"/>
<path d="M145.134 166.371H139.824V171.681H145.134V166.371Z" fill="white"/>
<path d="M150.443 166.371H145.133V171.681H150.443V166.371Z" fill="#2B2B2B"/>
<path d="M155.755 166.371H150.445V171.681H155.755V166.371Z" fill="#2B2B2B"/>
<path d="M161.064 166.371H155.754V171.681H161.064V166.371Z" fill="white"/>
<path d="M166.372 166.371H161.062V171.681H166.372V166.371Z" fill="#2B2B2B"/>
<path d="M171.681 166.371H166.371V171.681H171.681V166.371Z" fill="white"/>
<path d="M176.993 166.371H171.684V171.681H176.993V166.371Z" fill="#2B2B2B"/>
<path d="M182.302 166.371H176.992V171.681H182.302V166.371Z" fill="#2B2B2B"/>
<path d="M187.611 166.371H182.301V171.681H187.611V166.371Z" fill="white"/>
<path d="M17.6965 171.682H12.3867V176.991H17.6965V171.682Z" fill="white"/>
<path d="M23.009 171.682H17.6992V176.991H23.009V171.682Z" fill="#2B2B2B"/>
<path d="M28.3175 171.682H23.0078V176.991H28.3175V171.682Z" fill="white"/>
<path d="M33.6261 171.682H28.3164V176.991H33.6261V171.682Z" fill="white"/>
<path d="M38.9386 171.682H33.6289V176.991H38.9386V171.682Z" fill="white"/>
<path d="M44.2472 171.682H38.9375V176.991H44.2472V171.682Z" fill="#2B2B2B"/>
<path d="M49.5558 171.682H44.2461V176.991H49.5558V171.682Z" fill="white"/>
<path d="M54.8644 171.682H49.5547V176.991H54.8644V171.682Z" fill="#2B2B2B"/>
<path d="M60.1769 171.682H54.8672V176.991H60.1769V171.682Z" fill="white"/>
<path d="M65.4855 171.682H60.1758V176.991H65.4855V171.682Z" fill="white"/>
<path d="M70.7941 171.682H65.4844V176.991H70.7941V171.682Z" fill="#2B2B2B"/>
<path d="M76.1066 171.682H70.7969V176.991H76.1066V171.682Z" fill="white"/>
<path d="M81.4152 171.682H76.1055V176.991H81.4152V171.682Z" fill="white"/>
<path d="M86.7238 171.682H81.4141V176.991H86.7238V171.682Z" fill="#2B2B2B"/>
<path d="M92.0324 171.682H86.7227V176.991H92.0324V171.682Z" fill="#2B2B2B"/>
<path d="M97.3449 171.682H92.0352V176.991H97.3449V171.682Z" fill="white"/>
<path d="M102.653 171.682H97.3438V176.991H102.653V171.682Z" fill="#2B2B2B"/>
<path d="M107.966 171.682H102.656V176.991H107.966V171.682Z" fill="#2B2B2B"/>
<path d="M113.275 171.682H107.965V176.991H113.275V171.682Z" fill="white"/>
<path d="M118.587 171.682H113.277V176.991H118.587V171.682Z" fill="#2B2B2B"/>
<path d="M123.896 171.682H118.586V176.991H123.896V171.682Z" fill="#2B2B2B"/>
<path d="M129.204 171.682H123.895V176.991H129.204V171.682Z" fill="white"/>
<path d="M134.513 171.682H129.203V176.991H134.513V171.682Z" fill="#2B2B2B"/>
<path d="M139.825 171.682H134.516V176.991H139.825V171.682Z" fill="white"/>
<path d="M145.134 171.682H139.824V176.991H145.134V171.682Z" fill="#2B2B2B"/>
<path d="M150.443 171.682H145.133V176.991H150.443V171.682Z" fill="#2B2B2B"/>
<path d="M155.755 171.682H150.445V176.991H155.755V171.682Z" fill="white"/>
<path d="M161.064 171.682H155.754V176.991H161.064V171.682Z" fill="#2B2B2B"/>
<path d="M166.372 171.682H161.062V176.991H166.372V171.682Z" fill="#2B2B2B"/>
<path d="M171.681 171.682H166.371V176.991H171.681V171.682Z" fill="white"/>
<path d="M176.993 171.682H171.684V176.991H176.993V171.682Z" fill="white"/>
<path d="M182.302 171.682H176.992V176.991H182.302V171.682Z" fill="#2B2B2B"/>
<path d="M187.611 171.682H182.301V176.991H187.611V171.682Z" fill="#2B2B2B"/>
<path d="M17.6965 176.99H12.3867V182.3H17.6965V176.99Z" fill="white"/>
<path d="M23.009 176.99H17.6992V182.3H23.009V176.99Z" fill="#2B2B2B"/>
<path d="M28.3175 176.99H23.0078V182.3H28.3175V176.99Z" fill="#2B2B2B"/>
<path d="M33.6261 176.99H28.3164V182.3H33.6261V176.99Z" fill="#2B2B2B"/>
<path d="M38.9386 176.99H33.6289V182.3H38.9386V176.99Z" fill="#2B2B2B"/>
<path d="M44.2472 176.99H38.9375V182.3H44.2472V176.99Z" fill="#2B2B2B"/>
<path d="M49.5558 176.99H44.2461V182.3H49.5558V176.99Z" fill="white"/>
<path d="M54.8644 176.99H49.5547V182.3H54.8644V176.99Z" fill="#2B2B2B"/>
<path d="M60.1769 176.99H54.8672V182.3H60.1769V176.99Z" fill="white"/>
<path d="M65.4855 176.99H60.1758V182.3H65.4855V176.99Z" fill="white"/>
<path d="M70.7941 176.99H65.4844V182.3H70.7941V176.99Z" fill="white"/>
<path d="M76.1066 176.99H70.7969V182.3H76.1066V176.99Z" fill="#2B2B2B"/>
<path d="M81.4152 176.99H76.1055V182.3H81.4152V176.99Z" fill="white"/>
<path d="M86.7238 176.99H81.4141V182.3H86.7238V176.99Z" fill="#2B2B2B"/>
<path d="M92.0324 176.99H86.7227V182.3H92.0324V176.99Z" fill="#2B2B2B"/>
<path d="M97.3449 176.99H92.0352V182.3H97.3449V176.99Z" fill="white"/>
<path d="M102.653 176.99H97.3438V182.3H102.653V176.99Z" fill="#2B2B2B"/>
<path d="M107.966 176.99H102.656V182.3H107.966V176.99Z" fill="white"/>
<path d="M113.275 176.99H107.965V182.3H113.275V176.99Z" fill="white"/>
<path d="M118.587 176.99H113.277V182.3H118.587V176.99Z" fill="#2B2B2B"/>
<path d="M123.896 176.99H118.586V182.3H123.896V176.99Z" fill="#2B2B2B"/>
<path d="M129.204 176.99H123.895V182.3H129.204V176.99Z" fill="#2B2B2B"/>
<path d="M134.513 176.99H129.203V182.3H134.513V176.99Z" fill="#2B2B2B"/>
<path d="M139.825 176.99H134.516V182.3H139.825V176.99Z" fill="white"/>
<path d="M145.134 176.99H139.824V182.3H145.134V176.99Z" fill="white"/>
<path d="M150.443 176.99H145.133V182.3H150.443V176.99Z" fill="white"/>
<path d="M155.755 176.99H150.445V182.3H155.755V176.99Z" fill="white"/>
<path d="M161.064 176.99H155.754V182.3H161.064V176.99Z" fill="white"/>
<path d="M166.372 176.99H161.062V182.3H166.372V176.99Z" fill="white"/>
<path d="M171.681 176.99H166.371V182.3H171.681V176.99Z" fill="#2B2B2B"/>
<path d="M176.993 176.99H171.684V182.3H176.993V176.99Z" fill="#2B2B2B"/>
<path d="M182.302 176.99H176.992V182.3H182.302V176.99Z" fill="#2B2B2B"/>
<path d="M187.611 176.99H182.301V182.3H187.611V176.99Z" fill="white"/>
<path d="M17.6965 182.301H12.3867V187.611H17.6965V182.301Z" fill="white"/>
<path d="M23.009 182.301H17.6992V187.611H23.009V182.301Z" fill="white"/>
<path d="M28.3175 182.301H23.0078V187.611H28.3175V182.301Z" fill="white"/>
<path d="M33.6261 182.301H28.3164V187.611H33.6261V182.301Z" fill="white"/>
<path d="M38.9386 182.301H33.6289V187.611H38.9386V182.301Z" fill="white"/>
<path d="M44.2472 182.301H38.9375V187.611H44.2472V182.301Z" fill="white"/>
<path d="M49.5558 182.301H44.2461V187.611H49.5558V182.301Z" fill="white"/>
<path d="M54.8644 182.301H49.5547V187.611H54.8644V182.301Z" fill="#2B2B2B"/>
<path d="M60.1769 182.301H54.8672V187.611H60.1769V182.301Z" fill="white"/>
<path d="M65.4855 182.301H60.1758V187.611H65.4855V182.301Z" fill="#2B2B2B"/>
<path d="M70.7941 182.301H65.4844V187.611H70.7941V182.301Z" fill="white"/>
<path d="M76.1066 182.301H70.7969V187.611H76.1066V182.301Z" fill="white"/>
<path d="M81.4152 182.301H76.1055V187.611H81.4152V182.301Z" fill="white"/>
<path d="M86.7238 182.301H81.4141V187.611H86.7238V182.301Z" fill="white"/>
<path d="M92.0324 182.301H86.7227V187.611H92.0324V182.301Z" fill="#2B2B2B"/>
<path d="M97.3449 182.301H92.0352V187.611H97.3449V182.301Z" fill="#2B2B2B"/>
<path d="M102.653 182.301H97.3438V187.611H102.653V182.301Z" fill="#2B2B2B"/>
<path d="M107.966 182.301H102.656V187.611H107.966V182.301Z" fill="white"/>
<path d="M113.275 182.301H107.965V187.611H113.275V182.301Z" fill="white"/>
<path d="M118.587 182.301H113.277V187.611H118.587V182.301Z" fill="white"/>
<path d="M123.896 182.301H118.586V187.611H123.896V182.301Z" fill="#2B2B2B"/>
<path d="M129.204 182.301H123.895V187.611H129.204V182.301Z" fill="#2B2B2B"/>
<path d="M134.513 182.301H129.203V187.611H134.513V182.301Z" fill="#2B2B2B"/>
<path d="M139.825 182.301H134.516V187.611H139.825V182.301Z" fill="white"/>
<path d="M145.134 182.301H139.824V187.611H145.134V182.301Z" fill="#2B2B2B"/>
<path d="M150.443 182.301H145.133V187.611H150.443V182.301Z" fill="#2B2B2B"/>
<path d="M155.755 182.301H150.445V187.611H155.755V182.301Z" fill="#2B2B2B"/>
<path d="M161.064 182.301H155.754V187.611H161.064V182.301Z" fill="#2B2B2B"/>
<path d="M166.372 182.301H161.062V187.611H166.372V182.301Z" fill="white"/>
<path d="M171.681 182.301H166.371V187.611H171.681V182.301Z" fill="#2B2B2B"/>
<path d="M176.993 182.301H171.684V187.611H176.993V182.301Z" fill="white"/>
<path d="M182.302 182.301H176.992V187.611H182.302V182.301Z" fill="#2B2B2B"/>
<path d="M187.611 182.301H182.301V187.611H187.611V182.301Z" fill="#2B2B2B"/>
</svg>
